<svg width="28" height="21" viewBox="0 0 28 21" fill="none" xmlns="http://www.w3.org/2000/svg">
<rect x="1" y="1" width="26" height="19" rx="4" stroke="#7D7987" stroke-width="2" stroke-linecap="round" stroke-linejoin="round"/>
<path d="M27.6459 5.76342C28.0675 5.40667 28.1201 4.77569 27.7634 4.35409C27.4066 3.93248 26.7756 3.8799 26.354 4.23664L27.6459 5.76342ZM19.1675 11.6275L18.5216 10.8641L18.5216 10.8641L19.1675 11.6275ZM8.83246 11.6275L8.18652 12.3909L8.18652 12.3909L8.83246 11.6275ZM1.64594 4.23661C1.22434 3.87987 0.593358 3.93245 0.236614 4.35406C-0.12013 4.77566 -0.0675489 5.40664 0.354058 5.76339L1.64594 4.23661ZM26.354 4.23664L18.5216 10.8641L19.8135 12.3909L27.6459 5.76342L26.354 4.23664ZM9.4784 10.8641L1.64594 4.23661L0.354058 5.76339L8.18652 12.3909L9.4784 10.8641ZM18.5216 10.8641C15.9117 13.0725 12.0883 13.0725 9.4784 10.8641L8.18652 12.3909C11.5421 15.2302 16.4579 15.2302 19.8135 12.3909L18.5216 10.8641Z" fill="#7D7987"/>
</svg>
