<svg width="25" height="24" viewBox="0 0 25 24" xmlns="http://www.w3.org/2000/svg">
<g opacity="0.9">
<g opacity="0.9">
<path opacity="0.9" d="M17.3398 23.9585H8.00158C3.86073 23.9585 0.488281 20.565 0.488281 16.3984V8.11873C0.488281 3.95206 3.86073 0.558594 8.00158 0.558594H17.3398C21.4807 0.558594 24.8531 3.95206 24.8531 8.11873V16.3984C24.8531 20.565 21.4807 23.9585 17.3398 23.9585ZM8.00158 2.23385C4.77855 2.23385 2.15316 4.8756 2.15316 8.11873V16.3984C2.15316 19.6415 4.77855 22.2833 8.00158 22.2833H17.3398C20.5629 22.2833 23.1883 19.6415 23.1883 16.3984V8.11873C23.1883 4.8756 20.5629 2.23385 17.3398 2.23385H8.00158Z"/>
</g>
<g opacity="0.9">
<path opacity="0.9" d="M12.6759 18.986C8.98328 18.986 5.98438 15.9684 5.98438 12.2528C5.98438 8.53714 8.98328 5.51953 12.6759 5.51953C16.3685 5.51953 19.3674 8.53714 19.3674 12.2528C19.3568 15.9684 16.3578 18.986 12.6759 18.986ZM12.6759 7.20553C9.91177 7.20553 7.65992 9.47142 7.65992 12.2528C7.65992 15.0341 9.91177 17.3 12.6759 17.3C15.44 17.3 17.6919 15.0341 17.6919 12.2528C17.6919 9.47142 15.44 7.20553 12.6759 7.20553Z"/>
</g>
<g opacity="0.9">
<path opacity="0.9" d="M20.6483 5.73492C20.6483 6.50811 20.0293 7.13096 19.2609 7.13096C18.4925 7.13096 17.8735 6.50811 17.8735 5.73492C17.8735 4.96172 18.4925 4.33887 19.2609 4.33887C20.0293 4.33887 20.6483 4.96172 20.6483 5.73492Z"/>
</g>
</g>
</svg>
