<svg width="25" height="25" viewBox="0 0 25 25" xmlns="http://www.w3.org/2000/svg">
<g opacity="0.9">
<g opacity="0.9">
<path opacity="0.9" d="M12.5183 24.5168C10.3839 24.5168 8.2921 23.9476 6.44579 22.8737L1.69662 24.5168L2.6678 19.4588C1.14166 17.354 0.330566 14.8733 0.330566 12.2637C0.341239 5.49828 5.80546 0 12.5183 0C19.2419 0 24.7061 5.49828 24.7061 12.253C24.7061 19.0185 19.2419 24.5168 12.5183 24.5168ZM6.66991 20.8656L7.03277 21.1018C8.68698 22.1435 10.5866 22.7019 12.5183 22.7019C18.2387 22.7019 22.8918 18.0198 22.8918 12.2637C22.8918 6.50773 18.2387 1.83634 12.5183 1.83634C6.79798 1.83634 2.15553 6.51847 2.15553 12.2637C2.15553 14.6048 2.91326 16.817 4.35402 18.6748L4.61016 18.997L4.07654 21.7569L6.66991 20.8656Z"/>
</g>
<path opacity="0.9" d="M6.37113 7.54929C6.37113 7.54929 7.08618 6.29285 7.67316 6.21768C8.26013 6.14251 9.00719 6.14251 9.20996 6.52911C9.41274 6.9157 10.3199 9.13864 10.3199 9.13864C10.3199 9.13864 10.4693 9.52524 10.2345 9.89036C9.99971 10.2662 9.4661 10.8032 9.4661 10.8032C9.4661 10.8032 9.16728 11.1898 9.4661 11.5978C9.76492 12.0059 10.2238 12.7576 11.1843 13.7134C12.1342 14.6691 13.9698 15.3564 13.9698 15.3564C13.9698 15.3564 14.2366 15.3886 14.3967 15.2276C14.5675 15.0557 15.4639 13.9174 15.4639 13.9174C15.4639 13.9174 15.7521 13.5416 16.2323 13.7671C16.7126 13.9926 18.8044 15.0343 18.8044 15.0343C18.8044 15.0343 19.0498 15.1202 19.0498 15.496C19.0498 15.8719 18.9004 16.7739 18.5909 17.0854C18.2814 17.3968 17.3956 18.3418 16.0509 18.3418C14.7062 18.3418 11.5152 17.2465 9.81828 15.5282C8.12139 13.8208 6.60592 12.0811 6.25374 10.5025C5.89088 8.91313 5.93357 8.19362 6.37113 7.54929Z"/>
</g>
</svg>
