<svg width="25" height="24" viewBox="0 0 25 24" fill="none" xmlns="http://www.w3.org/2000/svg">
<g opacity="0.9">
<g opacity="0.9">
<path opacity="0.9" d="M17.3397 23.9584H8.00146C3.86061 23.9584 0.488159 20.5649 0.488159 16.3982V8.11861C0.488159 3.95194 3.86061 0.558472 8.00146 0.558472H17.3397C21.4806 0.558472 24.853 3.95194 24.853 8.11861V16.3982C24.853 20.5649 21.4806 23.9584 17.3397 23.9584ZM8.00146 2.23373C4.77843 2.23373 2.15304 4.87548 2.15304 8.11861V16.3982C2.15304 19.6414 4.77843 22.2831 8.00146 22.2831H17.3397C20.5628 22.2831 23.1882 19.6414 23.1882 16.3982V8.11861C23.1882 4.87548 20.5628 2.23373 17.3397 2.23373H8.00146Z" fill="white"/>
</g>
<g opacity="0.9">
<path opacity="0.9" d="M12.6759 18.9863C8.98328 18.9863 5.98438 15.9687 5.98438 12.253C5.98438 8.53739 8.98328 5.51978 12.6759 5.51978C16.3685 5.51978 19.3674 8.53739 19.3674 12.253C19.3568 15.9687 16.3578 18.9863 12.6759 18.9863ZM12.6759 7.20577C9.91177 7.20577 7.65992 9.47167 7.65992 12.253C7.65992 15.0344 9.91177 17.3003 12.6759 17.3003C15.44 17.3003 17.6919 15.0344 17.6919 12.253C17.6919 9.47167 15.44 7.20577 12.6759 7.20577Z" fill="white"/>
</g>
<g opacity="0.9">
<path opacity="0.9" d="M20.6482 5.73455C20.6482 6.50775 20.0292 7.1306 19.2608 7.1306C18.4924 7.1306 17.8734 6.50775 17.8734 5.73455C17.8734 4.96135 18.4924 4.3385 19.2608 4.3385C20.0292 4.3385 20.6482 4.96135 20.6482 5.73455Z" fill="white"/>
</g>
</g>
</svg>
