<svg width="22" height="21" viewBox="0 0 22 21" fill="none" xmlns="http://www.w3.org/2000/svg">
<path fill-rule="evenodd" clip-rule="evenodd" d="M3.79285 0.293701L5.20706 1.70791L1.70706 5.20792L0.292847 3.7937L3.79285 0.293701ZM18.2071 0.293701L16.7928 1.70791L20.2928 5.20792L21.7071 3.7937L18.2071 0.293701ZM11 20.9999C5.47711 20.9999 0.999954 16.5228 0.999954 10.9999C0.999954 5.47709 5.47711 0.999942 11 0.999942C16.5228 0.999942 21 5.47709 21 10.9999C21 16.5228 16.5228 20.9999 11 20.9999ZM11 18.9999C15.4182 18.9999 19 15.4182 19 10.9999C19 6.58167 15.4182 2.99995 11 2.99995C6.58168 2.99995 2.99995 6.58167 2.99995 10.9999C2.99995 15.4182 6.58168 18.9999 11 18.9999ZM14.2928 7.29285L9.99995 11.5857L7.70706 9.29284L6.29285 10.7071L9.99995 14.4142L15.7071 8.70706L14.2928 7.29285Z" fill="white"/>
</svg>
