<svg width="69" height="66" viewBox="0 0 69 66" fill="none" xmlns="http://www.w3.org/2000/svg">
<path fill-rule="evenodd" clip-rule="evenodd" d="M4.09107 9.83892C5.15867 8.13342 11.0444 1.94224 15.2385 2.12914C16.4933 2.23261 17.6025 2.9602 18.5037 3.80794H18.5072C20.5731 5.75708 26.5004 13.1131 26.8331 14.6617C27.6547 18.4599 22.9509 20.6493 24.3894 24.4775C28.0567 33.1184 34.3757 39.2028 43.3533 42.7306C47.3256 44.1191 49.5995 39.5933 53.5441 40.381C55.1524 40.7047 62.7955 46.4086 64.8163 48.4011V48.4011C65.6933 49.2656 66.4559 50.3369 66.5599 51.5451C66.7158 55.8005 59.8873 61.5445 58.5563 62.2787C55.4159 64.4448 51.3188 64.4048 46.3239 62.1686C32.3861 56.5849 10.1119 35.5415 4.20545 21.6138C1.94546 16.8311 1.79294 12.8594 4.09107 9.83892Z" stroke="white" stroke-width="4" stroke-linecap="round" stroke-linejoin="round"/>
<path d="M43.1582 2.9375C55.6525 4.27325 65.5176 13.7632 66.9216 25.7915" stroke="white" stroke-width="4" stroke-linecap="round" stroke-linejoin="round"/>
<path d="M43.1582 14.4523C49.132 15.5735 53.7996 20.0683 54.964 25.8208" stroke="white" stroke-width="4" stroke-linecap="round" stroke-linejoin="round"/>
</svg>
