<svg width="27" height="23" viewBox="0 0 27 23" fill="none" xmlns="http://www.w3.org/2000/svg">
<path d="M0.407794 10.6985C3.16998 9.13363 6.25331 7.82748 9.13423 6.51469C14.0905 4.36444 19.0665 2.25146 24.0927 0.284299C25.0706 -0.0508654 26.8277 -0.378597 27 1.11195C26.9056 3.2219 26.5175 5.31949 26.2513 7.41708C25.5757 12.0299 24.7947 16.6269 24.0332 21.2245C23.7708 22.756 21.9057 23.5487 20.7122 22.5686C17.8441 20.576 14.9539 18.6027 12.1224 16.5639C11.1949 15.5945 12.055 14.2024 12.8834 13.5101C15.2456 11.1156 17.7509 9.08124 19.9897 6.56299C20.5936 5.06305 18.8092 6.32715 18.2206 6.71452C14.9867 9.00674 11.8319 11.4389 8.42226 13.4535C6.68063 14.4395 4.65074 13.5969 2.9099 13.0466C1.34906 12.3819 -0.938209 11.7122 0.407636 10.6987L0.407794 10.6985Z" fill="white"/>
</svg>
