<svg width="21" height="22" viewBox="0 0 21 22" fill="none" xmlns="http://www.w3.org/2000/svg">
<path fill-rule="evenodd" clip-rule="evenodd" d="M9.85664 7.47161C10.3747 6.73125 10.5605 5.95097 9.97456 5.26222C8.65961 3.31114 7.77527 2.1046 7.22057 1.52356C6.16601 0.418929 4.43124 0.568348 3.51791 1.52262C3.02736 2.03517 2.86128 2.21118 2.35759 2.75368C-0.448062 5.73033 1.26297 12.0229 5.81151 16.8508C10.359 21.6776 16.2927 23.4929 19.1042 20.51C19.569 20.0348 19.9626 19.6173 20.2729 19.2695C21.168 18.2663 21.3038 16.508 20.267 15.3656C19.7355 14.78 18.6504 13.8875 16.7331 12.4332C16.1458 11.8764 15.4495 11.997 14.8112 12.4411C14.5041 12.6547 14.2806 12.8708 13.8587 13.3187L13.0924 14.1317C12.9915 14.2387 11.6211 13.511 10.2908 12.099C8.95984 10.6863 8.27402 9.23307 8.37447 9.12656L9.14124 8.31305C9.27512 8.17095 9.33912 8.10215 9.4212 8.01068C9.59221 7.8201 9.7338 7.64715 9.85664 7.47161ZM14.5059 15.6313L15.2723 14.8182C15.5045 14.5717 15.655 14.4201 15.7774 14.3156C17.4571 15.5946 18.4298 16.3989 18.8272 16.8367C19.0657 17.0995 19.0287 17.5791 18.8213 17.8115C18.5343 18.1332 18.1614 18.5288 17.7039 18.9968C15.8858 20.9254 11.096 19.46 7.22525 15.3515C3.35327 11.2417 1.97201 6.16193 3.77632 4.24762C4.27798 3.70735 4.43692 3.5389 4.92048 3.03367C5.10178 2.84423 5.59564 2.8017 5.8162 3.03272C6.24326 3.48007 7.03546 4.55567 8.20083 6.27702C8.1405 6.35644 8.06515 6.4462 7.97345 6.54839C7.90615 6.62339 7.85008 6.68366 7.7275 6.81377L6.96148 7.62649C5.65833 9.00821 6.76814 11.3598 8.8771 13.5983C10.9846 15.8353 13.2031 17.0134 14.5059 15.6313ZM12.6551 0.824846C16.9785 1.38052 20.4065 5.01556 20.9305 9.59991L18.9551 9.94903C18.5737 6.2564 15.8083 3.32401 12.3259 2.91956L12.6551 0.824846ZM11.9964 5.01589C14.6379 5.26642 16.7417 7.49725 16.978 10.2983L14.9962 10.6485C14.9121 8.73888 13.467 7.20651 11.6661 7.11733L11.9964 5.01589Z" fill="white"/>
</svg>
