<svg width="22" height="26" viewBox="0 0 22 26" fill="none" xmlns="http://www.w3.org/2000/svg">
<path d="M8.64988 13.2427C9.01145 13.6078 9.74386 14.2965 10.2445 14.4167C10.7451 14.5369 11.116 14.2596 11.51 13.9268C11.7071 13.6795 11.9899 13.5146 12.3026 13.4645C12.8218 13.3675 14.2774 14.3335 14.6204 14.7495C15.6819 16.0021 14.7316 17.4073 13.2946 17.5228C11.5192 17.6708 9.15515 16.0622 7.48638 14.3982C5.8176 12.7342 4.20909 10.3769 4.35743 8.60658C4.47795 7.17369 5.88713 6.22613 7.13871 7.28462C7.55591 7.63129 8.52936 9.08266 8.42738 9.59573C8.37712 9.90762 8.21179 10.1895 7.96383 10.3861C7.63008 10.779 7.34731 11.1488 7.47247 11.648C7.59763 12.1472 8.28368 12.8821 8.64988 13.2427Z" fill="white"/>
<path d="M13.4429 11.5001C13.3587 11.481 13.2816 11.4389 13.2202 11.3785C13.1588 11.318 13.1155 11.2417 13.0952 11.1581C12.987 10.5458 12.6974 9.97992 12.2636 9.53337C11.8298 9.08683 11.2718 8.78013 10.6616 8.65284C10.5718 8.62715 10.4919 8.575 10.4323 8.50325C10.3728 8.43149 10.3363 8.34346 10.3278 8.25071C10.327 8.21098 10.3356 8.17162 10.3528 8.13579C10.37 8.09996 10.3954 8.06866 10.427 8.04439C10.4585 8.02012 10.4954 8.00356 10.5345 7.99605C10.5736 7.98853 10.614 7.99026 10.6523 8.00111C11.4267 8.16761 12.1343 8.55885 12.6861 9.12556C13.238 9.69226 13.6093 10.4091 13.7534 11.1858C13.7648 11.2246 13.7666 11.2655 13.7586 11.3051C13.7506 11.3447 13.7331 11.3818 13.7075 11.4132C13.682 11.4446 13.6492 11.4693 13.612 11.4852C13.5748 11.5012 13.5342 11.5079 13.4938 11.5047L13.4429 11.5001Z" fill="white"/>
<path d="M15.4407 11.8514C15.3527 11.8314 15.2725 11.7862 15.2099 11.7213C15.1474 11.6564 15.1051 11.5747 15.0884 11.4863C14.7593 8.8701 13.1833 7.17375 10.5271 6.5821C10.438 6.55671 10.3586 6.50526 10.2991 6.4344C10.2396 6.36354 10.2028 6.27653 10.1934 6.18459C10.1916 6.14455 10.1994 6.10466 10.2163 6.06829C10.2333 6.03193 10.2587 6.00016 10.2905 5.97568C10.3224 5.95119 10.3596 5.93471 10.3992 5.92763C10.4388 5.92055 10.4795 5.92308 10.5179 5.93499C13.5124 6.60059 15.3666 8.59739 15.7606 11.5556C15.7685 11.5949 15.7668 11.6355 15.7556 11.6741C15.7444 11.7126 15.7241 11.7478 15.6963 11.7768C15.6686 11.8059 15.6343 11.8278 15.5962 11.8408C15.5582 11.8538 15.5176 11.8574 15.4778 11.8514H15.4407Z" fill="white"/>
<path d="M17.3506 12.1518C17.2644 12.1328 17.1855 12.0896 17.1231 12.0274C17.0607 11.9652 17.0174 11.8865 16.9983 11.8005C16.2798 7.52036 14.3004 5.38952 10.3788 4.67308C10.2885 4.65066 10.207 4.60163 10.145 4.53238C10.083 4.46312 10.0433 4.37686 10.0312 4.28481C10.0269 4.2448 10.0325 4.20437 10.0473 4.16695C10.0621 4.12954 10.0858 4.09625 10.1163 4.06992C10.1468 4.04359 10.1832 4.025 10.2225 4.01574C10.2617 4.00648 10.3026 4.00681 10.3417 4.01672C14.6157 4.79787 16.8685 7.2153 17.6473 11.8421C17.6584 11.8812 17.6596 11.9225 17.6507 11.9621C17.6419 12.0018 17.6233 12.0386 17.5967 12.0693C17.57 12.1001 17.5361 12.1237 17.498 12.1381C17.4599 12.1525 17.4188 12.1572 17.3784 12.1518H17.3506Z" fill="white"/>
<path d="M16.011 0H5.98904C4.40103 0.00122418 2.8784 0.630799 1.75551 1.75048C0.632609 2.87017 0.00122769 4.38844 0 5.97191L0 15.9652C0.00217328 17.3751 0.504591 18.7389 1.41831 19.8149C2.33203 20.891 3.59811 21.61 4.99241 21.8446L7.17109 25.7643C7.21042 25.8388 7.26941 25.9012 7.34172 25.9447C7.41402 25.9883 7.49687 26.0113 7.58133 26.0113C7.66579 26.0113 7.74865 25.9883 7.82095 25.9447C7.89325 25.9012 7.95225 25.8388 7.99157 25.7643L9.89212 21.9556H16.011C16.7987 21.9543 17.5784 21.7984 18.3057 21.4967C19.033 21.195 19.6936 20.7534 20.2497 20.1972C20.8058 19.6409 21.2466 18.9809 21.547 18.2548C21.8473 17.5286 22.0012 16.7506 22 15.9652V5.97191C21.9988 4.38844 21.3674 2.87017 20.2445 1.75048C19.1216 0.630799 17.599 0.00122418 16.011 0V0ZM20.8828 15.9652C20.8816 17.2532 20.3679 18.4881 19.4545 19.3989C18.5412 20.3097 17.3027 20.8219 16.011 20.8231H8.65908L7.82933 22.806C7.79441 22.8908 7.735 22.9633 7.65865 23.0144C7.5823 23.0654 7.49246 23.0926 7.40055 23.0926C7.30864 23.0926 7.2188 23.0654 7.14245 23.0144C7.0661 22.9633 7.00669 22.8908 6.97177 22.806L6.16056 20.8277H5.98904C5.34865 20.8277 4.71453 20.702 4.12288 20.4576C3.53123 20.2132 2.99365 19.8551 2.54082 19.4035C1.62629 18.4916 1.11252 17.2548 1.11252 15.9652V5.97191C1.11374 4.68265 1.62791 3.44655 2.54217 2.5349C3.45643 1.62326 4.69608 1.11056 5.98904 1.10933H16.011C17.3035 1.11056 18.5427 1.62341 19.4562 2.53518C20.3697 3.44696 20.8829 4.68308 20.8828 5.97191V15.9652Z" fill="white"/>
</svg>
