<svg width="179" height="175" viewBox="0 0 179 175" fill="none" xmlns="http://www.w3.org/2000/svg">
<mask id="mask0" mask-type="alpha" maskUnits="userSpaceOnUse" x="0" y="0" width="15" height="16">
<path d="M7.11257 15.9702C11.0407 15.9702 14.2252 12.433 14.2252 8.06977C14.2252 3.70653 11.0407 0.169434 7.11257 0.169434C3.1844 0.169434 0 3.70653 0 8.06977C0 12.433 3.1844 15.9702 7.11257 15.9702Z" fill="url(#paint0_linear)"/>
</mask>
<g mask="url(#mask0)">
<path d="M7.11257 15.9702C11.0407 15.9702 14.2252 12.433 14.2252 8.06977C14.2252 3.70653 11.0407 0.169434 7.11257 0.169434C3.1844 0.169434 0 3.70653 0 8.06977C0 12.433 3.1844 15.9702 7.11257 15.9702Z" fill="url(#paint1_linear)"/>
</g>
<mask id="mask1" mask-type="alpha" maskUnits="userSpaceOnUse" x="41" y="0" width="15" height="16">
<path d="M48.3062 15.9702C52.2343 15.9702 55.4188 12.433 55.4188 8.06977C55.4188 3.70653 52.2343 0.169434 48.3062 0.169434C44.378 0.169434 41.1936 3.70653 41.1936 8.06977C41.1936 12.433 44.378 15.9702 48.3062 15.9702Z" fill="url(#paint2_linear)"/>
</mask>
<g mask="url(#mask1)">
<path d="M48.3062 15.9702C52.2343 15.9702 55.4188 12.433 55.4188 8.06977C55.4188 3.70653 52.2343 0.169434 48.3062 0.169434C44.378 0.169434 41.1936 3.70653 41.1936 8.06977C41.1936 12.433 44.378 15.9702 48.3062 15.9702Z" fill="url(#paint3_linear)"/>
</g>
<mask id="mask2" mask-type="alpha" maskUnits="userSpaceOnUse" x="82" y="0" width="15" height="16">
<path d="M89.4998 15.9702C93.428 15.9702 96.6124 12.433 96.6124 8.06977C96.6124 3.70653 93.428 0.169434 89.4998 0.169434C85.5716 0.169434 82.3872 3.70653 82.3872 8.06977C82.3872 12.433 85.5716 15.9702 89.4998 15.9702Z" fill="url(#paint4_linear)"/>
</mask>
<g mask="url(#mask2)">
<path d="M89.4998 15.9702C93.428 15.9702 96.6124 12.433 96.6124 8.06977C96.6124 3.70653 93.428 0.169434 89.4998 0.169434C85.5716 0.169434 82.3872 3.70653 82.3872 8.06977C82.3872 12.433 85.5716 15.9702 89.4998 15.9702Z" fill="url(#paint5_linear)"/>
</g>
<mask id="mask3" mask-type="alpha" maskUnits="userSpaceOnUse" x="123" y="0" width="15" height="16">
<path d="M130.694 15.9702C134.622 15.9702 137.806 12.433 137.806 8.06977C137.806 3.70653 134.622 0.169434 130.694 0.169434C126.765 0.169434 123.581 3.70653 123.581 8.06977C123.581 12.433 126.765 15.9702 130.694 15.9702Z" fill="url(#paint6_linear)"/>
</mask>
<g mask="url(#mask3)">
<path d="M130.694 15.9702C134.622 15.9702 137.806 12.433 137.806 8.06977C137.806 3.70653 134.622 0.169434 130.694 0.169434C126.765 0.169434 123.581 3.70653 123.581 8.06977C123.581 12.433 126.765 15.9702 130.694 15.9702Z" fill="url(#paint7_linear)"/>
</g>
<mask id="mask4" mask-type="alpha" maskUnits="userSpaceOnUse" x="164" y="0" width="15" height="16">
<path d="M171.887 15.9702C175.816 15.9702 179 12.433 179 8.06977C179 3.70653 175.816 0.169434 171.887 0.169434C167.959 0.169434 164.775 3.70653 164.775 8.06977C164.775 12.433 167.959 15.9702 171.887 15.9702Z" fill="url(#paint8_linear)"/>
</mask>
<g mask="url(#mask4)">
<path d="M171.887 15.9702C175.816 15.9702 179 12.433 179 8.06977C179 3.70653 175.816 0.169434 171.887 0.169434C167.959 0.169434 164.775 3.70653 164.775 8.06977C164.775 12.433 167.959 15.9702 171.887 15.9702Z" fill="url(#paint9_linear)"/>
</g>
<mask id="mask5" mask-type="alpha" maskUnits="userSpaceOnUse" x="0" y="39" width="15" height="17">
<path d="M7.11257 55.6318C11.0407 55.6318 14.2252 52.0949 14.2252 47.7319C14.2252 43.3689 11.0407 39.832 7.11257 39.832C3.1844 39.832 0 43.3689 0 47.7319C0 52.0949 3.1844 55.6318 7.11257 55.6318Z" fill="url(#paint10_linear)"/>
</mask>
<g mask="url(#mask5)">
<path d="M7.11257 55.6318C11.0407 55.6318 14.2252 52.0949 14.2252 47.7319C14.2252 43.3689 11.0407 39.832 7.11257 39.832C3.1844 39.832 0 43.3689 0 47.7319C0 52.0949 3.1844 55.6318 7.11257 55.6318Z" fill="url(#paint11_linear)"/>
</g>
<mask id="mask6" mask-type="alpha" maskUnits="userSpaceOnUse" x="41" y="39" width="15" height="17">
<path d="M48.3062 55.6318C52.2343 55.6318 55.4187 52.0949 55.4187 47.7319C55.4187 43.3689 52.2343 39.832 48.3062 39.832C44.378 39.832 41.1936 43.3689 41.1936 47.7319C41.1936 52.0949 44.378 55.6318 48.3062 55.6318Z" fill="url(#paint12_linear)"/>
</mask>
<g mask="url(#mask6)">
<path d="M48.3062 55.6318C52.2343 55.6318 55.4187 52.0949 55.4187 47.7319C55.4187 43.3689 52.2343 39.832 48.3062 39.832C44.378 39.832 41.1936 43.3689 41.1936 47.7319C41.1936 52.0949 44.378 55.6318 48.3062 55.6318Z" fill="url(#paint13_linear)"/>
</g>
<mask id="mask7" mask-type="alpha" maskUnits="userSpaceOnUse" x="82" y="39" width="15" height="17">
<path d="M89.4998 55.6318C93.428 55.6318 96.6124 52.0949 96.6124 47.7319C96.6124 43.3689 93.428 39.832 89.4998 39.832C85.5716 39.832 82.3872 43.3689 82.3872 47.7319C82.3872 52.0949 85.5716 55.6318 89.4998 55.6318Z" fill="url(#paint14_linear)"/>
</mask>
<g mask="url(#mask7)">
<path d="M89.4998 55.6318C93.428 55.6318 96.6124 52.0949 96.6124 47.7319C96.6124 43.3689 93.428 39.832 89.4998 39.832C85.5716 39.832 82.3872 43.3689 82.3872 47.7319C82.3872 52.0949 85.5716 55.6318 89.4998 55.6318Z" fill="url(#paint15_linear)"/>
</g>
<mask id="mask8" mask-type="alpha" maskUnits="userSpaceOnUse" x="123" y="39" width="15" height="17">
<path d="M130.694 55.6318C134.622 55.6318 137.806 52.0949 137.806 47.7319C137.806 43.3689 134.622 39.832 130.694 39.832C126.765 39.832 123.581 43.3689 123.581 47.7319C123.581 52.0949 126.765 55.6318 130.694 55.6318Z" fill="url(#paint16_linear)"/>
</mask>
<g mask="url(#mask8)">
<path d="M130.694 55.6318C134.622 55.6318 137.806 52.0949 137.806 47.7319C137.806 43.3689 134.622 39.832 130.694 39.832C126.765 39.832 123.581 43.3689 123.581 47.7319C123.581 52.0949 126.765 55.6318 130.694 55.6318Z" fill="url(#paint17_linear)"/>
</g>
<mask id="mask9" mask-type="alpha" maskUnits="userSpaceOnUse" x="164" y="39" width="15" height="17">
<path d="M171.887 55.6318C175.816 55.6318 179 52.0949 179 47.7319C179 43.3689 175.816 39.832 171.887 39.832C167.959 39.832 164.775 43.3689 164.775 47.7319C164.775 52.0949 167.959 55.6318 171.887 55.6318Z" fill="url(#paint18_linear)"/>
</mask>
<g mask="url(#mask9)">
<path d="M171.887 55.6318C175.816 55.6318 179 52.0949 179 47.7319C179 43.3689 175.816 39.832 171.887 39.832C167.959 39.832 164.775 43.3689 164.775 47.7319C164.775 52.0949 167.959 55.6318 171.887 55.6318Z" fill="url(#paint19_linear)"/>
</g>
<mask id="mask10" mask-type="alpha" maskUnits="userSpaceOnUse" x="0" y="79" width="15" height="17">
<path d="M7.11257 95.2124C11.0407 95.2124 14.2252 91.6756 14.2252 87.3127C14.2252 82.9499 11.0407 79.4131 7.11257 79.4131C3.1844 79.4131 0 82.9499 0 87.3127C0 91.6756 3.1844 95.2124 7.11257 95.2124Z" fill="url(#paint20_linear)"/>
</mask>
<g mask="url(#mask10)">
<path d="M7.11257 95.2124C11.0407 95.2124 14.2252 91.6756 14.2252 87.3127C14.2252 82.9499 11.0407 79.4131 7.11257 79.4131C3.1844 79.4131 0 82.9499 0 87.3127C0 91.6756 3.1844 95.2124 7.11257 95.2124Z" fill="url(#paint21_linear)"/>
</g>
<mask id="mask11" mask-type="alpha" maskUnits="userSpaceOnUse" x="41" y="79" width="15" height="17">
<path d="M48.3062 95.2124C52.2343 95.2124 55.4187 91.6756 55.4187 87.3127C55.4187 82.9499 52.2343 79.4131 48.3062 79.4131C44.378 79.4131 41.1936 82.9499 41.1936 87.3127C41.1936 91.6756 44.378 95.2124 48.3062 95.2124Z" fill="url(#paint22_linear)"/>
</mask>
<g mask="url(#mask11)">
<path d="M48.3062 95.2124C52.2343 95.2124 55.4187 91.6756 55.4187 87.3127C55.4187 82.9499 52.2343 79.4131 48.3062 79.4131C44.378 79.4131 41.1936 82.9499 41.1936 87.3127C41.1936 91.6756 44.378 95.2124 48.3062 95.2124Z" fill="url(#paint23_linear)"/>
</g>
<mask id="mask12" mask-type="alpha" maskUnits="userSpaceOnUse" x="82" y="79" width="15" height="17">
<path d="M89.4998 95.2124C93.428 95.2124 96.6124 91.6756 96.6124 87.3127C96.6124 82.9499 93.428 79.4131 89.4998 79.4131C85.5716 79.4131 82.3872 82.9499 82.3872 87.3127C82.3872 91.6756 85.5716 95.2124 89.4998 95.2124Z" fill="url(#paint24_linear)"/>
</mask>
<g mask="url(#mask12)">
<path d="M89.4998 95.2124C93.428 95.2124 96.6124 91.6756 96.6124 87.3127C96.6124 82.9499 93.428 79.4131 89.4998 79.4131C85.5716 79.4131 82.3872 82.9499 82.3872 87.3127C82.3872 91.6756 85.5716 95.2124 89.4998 95.2124Z" fill="url(#paint25_linear)"/>
</g>
<mask id="mask13" mask-type="alpha" maskUnits="userSpaceOnUse" x="123" y="79" width="15" height="17">
<path d="M130.694 95.2124C134.622 95.2124 137.806 91.6756 137.806 87.3127C137.806 82.9499 134.622 79.4131 130.694 79.4131C126.765 79.4131 123.581 82.9499 123.581 87.3127C123.581 91.6756 126.765 95.2124 130.694 95.2124Z" fill="url(#paint26_linear)"/>
</mask>
<g mask="url(#mask13)">
<path d="M130.694 95.2124C134.622 95.2124 137.806 91.6756 137.806 87.3127C137.806 82.9499 134.622 79.4131 130.694 79.4131C126.765 79.4131 123.581 82.9499 123.581 87.3127C123.581 91.6756 126.765 95.2124 130.694 95.2124Z" fill="url(#paint27_linear)"/>
</g>
<mask id="mask14" mask-type="alpha" maskUnits="userSpaceOnUse" x="164" y="79" width="15" height="17">
<path d="M171.887 95.2124C175.816 95.2124 179 91.6756 179 87.3127C179 82.9499 175.816 79.4131 171.887 79.4131C167.959 79.4131 164.775 82.9499 164.775 87.3127C164.775 91.6756 167.959 95.2124 171.887 95.2124Z" fill="url(#paint28_linear)"/>
</mask>
<g mask="url(#mask14)">
<path d="M171.887 95.2124C175.816 95.2124 179 91.6756 179 87.3127C179 82.9499 175.816 79.4131 171.887 79.4131C167.959 79.4131 164.775 82.9499 164.775 87.3127C164.775 91.6756 167.959 95.2124 171.887 95.2124Z" fill="url(#paint29_linear)"/>
</g>
<mask id="mask15" mask-type="alpha" maskUnits="userSpaceOnUse" x="0" y="119" width="15" height="16">
<path d="M7.11257 134.874C11.0407 134.874 14.2252 131.337 14.2252 126.975C14.2252 122.612 11.0407 119.076 7.11257 119.076C3.1844 119.076 0 122.612 0 126.975C0 131.337 3.1844 134.874 7.11257 134.874Z" fill="url(#paint30_linear)"/>
</mask>
<g mask="url(#mask15)">
<path d="M7.11257 134.874C11.0407 134.874 14.2252 131.337 14.2252 126.975C14.2252 122.612 11.0407 119.076 7.11257 119.076C3.1844 119.076 0 122.612 0 126.975C0 131.337 3.1844 134.874 7.11257 134.874Z" fill="url(#paint31_linear)"/>
</g>
<mask id="mask16" mask-type="alpha" maskUnits="userSpaceOnUse" x="41" y="119" width="15" height="16">
<path d="M48.3062 134.874C52.2343 134.874 55.4187 131.337 55.4187 126.975C55.4187 122.612 52.2343 119.076 48.3062 119.076C44.378 119.076 41.1936 122.612 41.1936 126.975C41.1936 131.337 44.378 134.874 48.3062 134.874Z" fill="url(#paint32_linear)"/>
</mask>
<g mask="url(#mask16)">
<path d="M48.3062 134.874C52.2343 134.874 55.4187 131.337 55.4187 126.975C55.4187 122.612 52.2343 119.076 48.3062 119.076C44.378 119.076 41.1936 122.612 41.1936 126.975C41.1936 131.337 44.378 134.874 48.3062 134.874Z" fill="url(#paint33_linear)"/>
</g>
<mask id="mask17" mask-type="alpha" maskUnits="userSpaceOnUse" x="82" y="119" width="15" height="16">
<path d="M89.4998 134.874C93.428 134.874 96.6124 131.337 96.6124 126.975C96.6124 122.612 93.428 119.076 89.4998 119.076C85.5716 119.076 82.3872 122.612 82.3872 126.975C82.3872 131.337 85.5716 134.874 89.4998 134.874Z" fill="url(#paint34_linear)"/>
</mask>
<g mask="url(#mask17)">
<path d="M89.4998 134.874C93.428 134.874 96.6124 131.337 96.6124 126.975C96.6124 122.612 93.428 119.076 89.4998 119.076C85.5716 119.076 82.3872 122.612 82.3872 126.975C82.3872 131.337 85.5716 134.874 89.4998 134.874Z" fill="url(#paint35_linear)"/>
</g>
<mask id="mask18" mask-type="alpha" maskUnits="userSpaceOnUse" x="123" y="119" width="15" height="16">
<path d="M130.694 134.874C134.622 134.874 137.806 131.337 137.806 126.975C137.806 122.612 134.622 119.076 130.694 119.076C126.765 119.076 123.581 122.612 123.581 126.975C123.581 131.337 126.765 134.874 130.694 134.874Z" fill="url(#paint36_linear)"/>
</mask>
<g mask="url(#mask18)">
<path d="M130.694 134.874C134.622 134.874 137.806 131.337 137.806 126.975C137.806 122.612 134.622 119.076 130.694 119.076C126.765 119.076 123.581 122.612 123.581 126.975C123.581 131.337 126.765 134.874 130.694 134.874Z" fill="url(#paint37_linear)"/>
</g>
<mask id="mask19" mask-type="alpha" maskUnits="userSpaceOnUse" x="164" y="119" width="15" height="16">
<path d="M171.887 134.874C175.816 134.874 179 131.337 179 126.975C179 122.612 175.816 119.076 171.887 119.076C167.959 119.076 164.775 122.612 164.775 126.975C164.775 131.337 167.959 134.874 171.887 134.874Z" fill="url(#paint38_linear)"/>
</mask>
<g mask="url(#mask19)">
<path d="M171.887 134.874C175.816 134.874 179 131.337 179 126.975C179 122.612 175.816 119.076 171.887 119.076C167.959 119.076 164.775 122.612 164.775 126.975C164.775 131.337 167.959 134.874 171.887 134.874Z" fill="url(#paint39_linear)"/>
</g>
<mask id="mask20" mask-type="alpha" maskUnits="userSpaceOnUse" x="0" y="158" width="15" height="17">
<path d="M7.11257 174.454C11.0407 174.454 14.2252 170.917 14.2252 166.555C14.2252 162.193 11.0407 158.657 7.11257 158.657C3.1844 158.657 0 162.193 0 166.555C0 170.917 3.1844 174.454 7.11257 174.454Z" fill="url(#paint40_linear)"/>
</mask>
<g mask="url(#mask20)">
<path d="M7.11257 174.454C11.0407 174.454 14.2252 170.917 14.2252 166.555C14.2252 162.193 11.0407 158.657 7.11257 158.657C3.1844 158.657 0 162.193 0 166.555C0 170.917 3.1844 174.454 7.11257 174.454Z" fill="url(#paint41_linear)"/>
</g>
<mask id="mask21" mask-type="alpha" maskUnits="userSpaceOnUse" x="41" y="158" width="15" height="17">
<path d="M48.3062 174.454C52.2343 174.454 55.4187 170.917 55.4187 166.555C55.4187 162.193 52.2343 158.657 48.3062 158.657C44.378 158.657 41.1936 162.193 41.1936 166.555C41.1936 170.917 44.378 174.454 48.3062 174.454Z" fill="url(#paint42_linear)"/>
</mask>
<g mask="url(#mask21)">
<path d="M48.3062 174.454C52.2343 174.454 55.4187 170.917 55.4187 166.555C55.4187 162.193 52.2343 158.657 48.3062 158.657C44.378 158.657 41.1936 162.193 41.1936 166.555C41.1936 170.917 44.378 174.454 48.3062 174.454Z" fill="url(#paint43_linear)"/>
</g>
<mask id="mask22" mask-type="alpha" maskUnits="userSpaceOnUse" x="82" y="158" width="15" height="17">
<path d="M89.4998 174.454C93.428 174.454 96.6124 170.917 96.6124 166.555C96.6124 162.193 93.428 158.657 89.4998 158.657C85.5716 158.657 82.3872 162.193 82.3872 166.555C82.3872 170.917 85.5716 174.454 89.4998 174.454Z" fill="url(#paint44_linear)"/>
</mask>
<g mask="url(#mask22)">
<path d="M89.4998 174.454C93.428 174.454 96.6124 170.917 96.6124 166.555C96.6124 162.193 93.428 158.657 89.4998 158.657C85.5716 158.657 82.3872 162.193 82.3872 166.555C82.3872 170.917 85.5716 174.454 89.4998 174.454Z" fill="url(#paint45_linear)"/>
</g>
<mask id="mask23" mask-type="alpha" maskUnits="userSpaceOnUse" x="123" y="158" width="15" height="17">
<path d="M130.694 174.454C134.622 174.454 137.806 170.917 137.806 166.555C137.806 162.193 134.622 158.657 130.694 158.657C126.765 158.657 123.581 162.193 123.581 166.555C123.581 170.917 126.765 174.454 130.694 174.454Z" fill="url(#paint46_linear)"/>
</mask>
<g mask="url(#mask23)">
<path d="M130.694 174.454C134.622 174.454 137.806 170.917 137.806 166.555C137.806 162.193 134.622 158.657 130.694 158.657C126.765 158.657 123.581 162.193 123.581 166.555C123.581 170.917 126.765 174.454 130.694 174.454Z" fill="url(#paint47_linear)"/>
</g>
<mask id="mask24" mask-type="alpha" maskUnits="userSpaceOnUse" x="164" y="158" width="15" height="17">
<path d="M171.887 174.454C175.816 174.454 179 170.917 179 166.555C179 162.193 175.816 158.657 171.887 158.657C167.959 158.657 164.775 162.193 164.775 166.555C164.775 170.917 167.959 174.454 171.887 174.454Z" fill="url(#paint48_linear)"/>
</mask>
<g mask="url(#mask24)">
<path d="M171.887 174.454C175.816 174.454 179 170.917 179 166.555C179 162.193 175.816 158.657 171.887 158.657C167.959 158.657 164.775 162.193 164.775 166.555C164.775 170.917 167.959 174.454 171.887 174.454Z" fill="url(#paint49_linear)"/>
</g>
<defs>
<linearGradient id="paint0_linear" x1="74.8154" y1="198.925" x2="-41.9925" y2="-68.0204" gradientUnits="userSpaceOnUse">
<stop/>
<stop offset="1" stop-color="white"/>
</linearGradient>
<linearGradient id="paint1_linear" x1="74.8154" y1="198.925" x2="-41.9925" y2="-68.0204" gradientUnits="userSpaceOnUse">
<stop stop-color="#97C3F9"/>
<stop offset="1" stop-color="#93C1F9"/>
</linearGradient>
<linearGradient id="paint2_linear" x1="110.463" y1="183.327" x2="-6.34466" y2="-83.6185" gradientUnits="userSpaceOnUse">
<stop/>
<stop offset="1" stop-color="white"/>
</linearGradient>
<linearGradient id="paint3_linear" x1="110.463" y1="183.327" x2="-6.34466" y2="-83.6185" gradientUnits="userSpaceOnUse">
<stop stop-color="#97C3F9"/>
<stop offset="1" stop-color="#93C1F9"/>
</linearGradient>
<linearGradient id="paint4_linear" x1="146.111" y1="167.728" x2="29.3032" y2="-99.2167" gradientUnits="userSpaceOnUse">
<stop/>
<stop offset="1" stop-color="white"/>
</linearGradient>
<linearGradient id="paint5_linear" x1="146.111" y1="167.728" x2="29.3032" y2="-99.2167" gradientUnits="userSpaceOnUse">
<stop stop-color="#97C3F9"/>
<stop offset="1" stop-color="#93C1F9"/>
</linearGradient>
<linearGradient id="paint6_linear" x1="181.759" y1="152.129" x2="64.9509" y2="-114.816" gradientUnits="userSpaceOnUse">
<stop/>
<stop offset="1" stop-color="white"/>
</linearGradient>
<linearGradient id="paint7_linear" x1="181.759" y1="152.129" x2="64.9509" y2="-114.816" gradientUnits="userSpaceOnUse">
<stop stop-color="#97C3F9"/>
<stop offset="1" stop-color="#93C1F9"/>
</linearGradient>
<linearGradient id="paint8_linear" x1="217.407" y1="136.531" x2="100.599" y2="-130.414" gradientUnits="userSpaceOnUse">
<stop/>
<stop offset="1" stop-color="white"/>
</linearGradient>
<linearGradient id="paint9_linear" x1="217.407" y1="136.531" x2="100.599" y2="-130.414" gradientUnits="userSpaceOnUse">
<stop stop-color="#97C3F9"/>
<stop offset="1" stop-color="#93C1F9"/>
</linearGradient>
<linearGradient id="paint10_linear" x1="62.6506" y1="204.235" x2="-54.1451" y2="-62.6993" gradientUnits="userSpaceOnUse">
<stop/>
<stop offset="1" stop-color="white"/>
</linearGradient>
<linearGradient id="paint11_linear" x1="62.6506" y1="204.235" x2="-54.1451" y2="-62.6993" gradientUnits="userSpaceOnUse">
<stop stop-color="#97C3F9"/>
<stop offset="1" stop-color="#93C1F9"/>
</linearGradient>
<linearGradient id="paint12_linear" x1="98.2981" y1="188.637" x2="-18.4977" y2="-78.2974" gradientUnits="userSpaceOnUse">
<stop/>
<stop offset="1" stop-color="white"/>
</linearGradient>
<linearGradient id="paint13_linear" x1="98.2981" y1="188.637" x2="-18.4977" y2="-78.2974" gradientUnits="userSpaceOnUse">
<stop stop-color="#97C3F9"/>
<stop offset="1" stop-color="#93C1F9"/>
</linearGradient>
<linearGradient id="paint14_linear" x1="133.946" y1="173.039" x2="17.1502" y2="-93.8949" gradientUnits="userSpaceOnUse">
<stop/>
<stop offset="1" stop-color="white"/>
</linearGradient>
<linearGradient id="paint15_linear" x1="133.946" y1="173.039" x2="17.1502" y2="-93.8949" gradientUnits="userSpaceOnUse">
<stop stop-color="#97C3F9"/>
<stop offset="1" stop-color="#93C1F9"/>
</linearGradient>
<linearGradient id="paint16_linear" x1="169.594" y1="157.442" x2="52.798" y2="-109.493" gradientUnits="userSpaceOnUse">
<stop/>
<stop offset="1" stop-color="white"/>
</linearGradient>
<linearGradient id="paint17_linear" x1="169.594" y1="157.442" x2="52.798" y2="-109.493" gradientUnits="userSpaceOnUse">
<stop stop-color="#97C3F9"/>
<stop offset="1" stop-color="#93C1F9"/>
</linearGradient>
<linearGradient id="paint18_linear" x1="205.242" y1="141.844" x2="88.4461" y2="-125.09" gradientUnits="userSpaceOnUse">
<stop/>
<stop offset="1" stop-color="white"/>
</linearGradient>
<linearGradient id="paint19_linear" x1="205.242" y1="141.844" x2="88.4461" y2="-125.09" gradientUnits="userSpaceOnUse">
<stop stop-color="#97C3F9"/>
<stop offset="1" stop-color="#93C1F9"/>
</linearGradient>
<linearGradient id="paint20_linear" x1="50.4855" y1="209.552" x2="-66.3043" y2="-57.3762" gradientUnits="userSpaceOnUse">
<stop/>
<stop offset="1" stop-color="white"/>
</linearGradient>
<linearGradient id="paint21_linear" x1="50.4855" y1="209.552" x2="-66.3043" y2="-57.3762" gradientUnits="userSpaceOnUse">
<stop stop-color="white"/>
<stop offset="1" stop-color="#93C1F9"/>
</linearGradient>
<linearGradient id="paint22_linear" x1="86.1331" y1="193.955" x2="-30.6567" y2="-72.9733" gradientUnits="userSpaceOnUse">
<stop/>
<stop offset="1" stop-color="white"/>
</linearGradient>
<linearGradient id="paint23_linear" x1="86.1331" y1="193.955" x2="-30.6567" y2="-72.9733" gradientUnits="userSpaceOnUse">
<stop stop-color="#97C3F9"/>
<stop offset="1" stop-color="#93C1F9"/>
</linearGradient>
<linearGradient id="paint24_linear" x1="121.781" y1="178.358" x2="4.99127" y2="-88.5703" gradientUnits="userSpaceOnUse">
<stop/>
<stop offset="1" stop-color="white"/>
</linearGradient>
<linearGradient id="paint25_linear" x1="121.781" y1="178.358" x2="4.99127" y2="-88.5703" gradientUnits="userSpaceOnUse">
<stop stop-color="#97C3F9"/>
<stop offset="1" stop-color="#93C1F9"/>
</linearGradient>
<linearGradient id="paint26_linear" x1="157.429" y1="162.761" x2="40.6391" y2="-104.168" gradientUnits="userSpaceOnUse">
<stop/>
<stop offset="1" stop-color="white"/>
</linearGradient>
<linearGradient id="paint27_linear" x1="157.429" y1="162.761" x2="40.6391" y2="-104.168" gradientUnits="userSpaceOnUse">
<stop stop-color="#97C3F9"/>
<stop offset="1" stop-color="#93C1F9"/>
</linearGradient>
<linearGradient id="paint28_linear" x1="193.077" y1="147.164" x2="76.287" y2="-119.765" gradientUnits="userSpaceOnUse">
<stop/>
<stop offset="1" stop-color="white"/>
</linearGradient>
<linearGradient id="paint29_linear" x1="193.077" y1="147.164" x2="76.287" y2="-119.765" gradientUnits="userSpaceOnUse">
<stop stop-color="#97C3F9"/>
<stop offset="1" stop-color="#93C1F9"/>
</linearGradient>
<linearGradient id="paint30_linear" x1="38.3204" y1="214.866" x2="-78.4511" y2="-52.046" gradientUnits="userSpaceOnUse">
<stop/>
<stop offset="1" stop-color="white"/>
</linearGradient>
<linearGradient id="paint31_linear" x1="38.3204" y1="214.866" x2="-78.4511" y2="-52.046" gradientUnits="userSpaceOnUse">
<stop stop-color="#97C3F9"/>
<stop offset="1" stop-color="#93C1F9"/>
</linearGradient>
<linearGradient id="paint32_linear" x1="73.9682" y1="199.27" x2="-42.8035" y2="-67.6414" gradientUnits="userSpaceOnUse">
<stop/>
<stop offset="1" stop-color="white"/>
</linearGradient>
<linearGradient id="paint33_linear" x1="73.9682" y1="199.27" x2="-42.8035" y2="-67.6414" gradientUnits="userSpaceOnUse">
<stop stop-color="#97C3F9"/>
<stop offset="1" stop-color="#93C1F9"/>
</linearGradient>
<linearGradient id="paint34_linear" x1="109.616" y1="183.674" x2="-7.15558" y2="-83.2371" gradientUnits="userSpaceOnUse">
<stop/>
<stop offset="1" stop-color="white"/>
</linearGradient>
<linearGradient id="paint35_linear" x1="109.616" y1="183.674" x2="-7.15558" y2="-83.2371" gradientUnits="userSpaceOnUse">
<stop stop-color="#97C3F9"/>
<stop offset="1" stop-color="#93C1F9"/>
</linearGradient>
<linearGradient id="paint36_linear" x1="145.264" y1="168.079" x2="28.4923" y2="-98.8328" gradientUnits="userSpaceOnUse">
<stop/>
<stop offset="1" stop-color="white"/>
</linearGradient>
<linearGradient id="paint37_linear" x1="145.264" y1="168.079" x2="28.4923" y2="-98.8328" gradientUnits="userSpaceOnUse">
<stop stop-color="#97C3F9"/>
<stop offset="1" stop-color="#93C1F9"/>
</linearGradient>
<linearGradient id="paint38_linear" x1="180.912" y1="152.483" x2="64.1402" y2="-114.429" gradientUnits="userSpaceOnUse">
<stop/>
<stop offset="1" stop-color="white"/>
</linearGradient>
<linearGradient id="paint39_linear" x1="180.912" y1="152.483" x2="64.1402" y2="-114.429" gradientUnits="userSpaceOnUse">
<stop stop-color="#97C3F9"/>
<stop offset="1" stop-color="#93C1F9"/>
</linearGradient>
<linearGradient id="paint40_linear" x1="26.1554" y1="220.188" x2="-90.6039" y2="-46.7123" gradientUnits="userSpaceOnUse">
<stop/>
<stop offset="1" stop-color="white"/>
</linearGradient>
<linearGradient id="paint41_linear" x1="26.1554" y1="220.188" x2="-90.6039" y2="-46.7123" gradientUnits="userSpaceOnUse">
<stop stop-color="white"/>
<stop offset="1" stop-color="white"/>
</linearGradient>
<linearGradient id="paint42_linear" x1="61.8032" y1="204.593" x2="-54.9563" y2="-62.3068" gradientUnits="userSpaceOnUse">
<stop/>
<stop offset="1" stop-color="white"/>
</linearGradient>
<linearGradient id="paint43_linear" x1="61.8032" y1="204.593" x2="-54.9563" y2="-62.3068" gradientUnits="userSpaceOnUse">
<stop stop-color="#97C3F9"/>
<stop offset="1" stop-color="#93C1F9"/>
</linearGradient>
<linearGradient id="paint44_linear" x1="97.4509" y1="188.999" x2="-19.3084" y2="-77.9013" gradientUnits="userSpaceOnUse">
<stop/>
<stop offset="1" stop-color="white"/>
</linearGradient>
<linearGradient id="paint45_linear" x1="97.4509" y1="188.999" x2="-19.3084" y2="-77.9013" gradientUnits="userSpaceOnUse">
<stop stop-color="#97C3F9"/>
<stop offset="1" stop-color="#93C1F9"/>
</linearGradient>
<linearGradient id="paint46_linear" x1="133.099" y1="173.404" x2="16.3394" y2="-93.4962" gradientUnits="userSpaceOnUse">
<stop/>
<stop offset="1" stop-color="white"/>
</linearGradient>
<linearGradient id="paint47_linear" x1="133.099" y1="173.404" x2="16.3394" y2="-93.4962" gradientUnits="userSpaceOnUse">
<stop stop-color="#97C3F9"/>
<stop offset="1" stop-color="#93C1F9"/>
</linearGradient>
<linearGradient id="paint48_linear" x1="168.747" y1="157.81" x2="51.9874" y2="-109.091" gradientUnits="userSpaceOnUse">
<stop/>
<stop offset="1" stop-color="white"/>
</linearGradient>
<linearGradient id="paint49_linear" x1="168.747" y1="157.81" x2="51.9874" y2="-109.091" gradientUnits="userSpaceOnUse">
<stop stop-color="white"/>
<stop offset="1" stop-color="#93C1F9"/>
</linearGradient>
</defs>
</svg>
