<svg width="166" height="165" viewBox="0 0 166 165" fill="none" xmlns="http://www.w3.org/2000/svg">
<g opacity="0.3">
<mask id="mask0" mask-type="alpha" maskUnits="userSpaceOnUse" x="0" y="0" width="14" height="16">
<path d="M6.57456 15.6707C10.2056 15.6707 13.1491 12.3511 13.1491 8.25642C13.1491 4.1617 10.2056 0.842285 6.57456 0.842285C2.94353 0.842285 0 4.1617 0 8.25642C0 12.3511 2.94353 15.6707 6.57456 15.6707Z" fill="url(#paint0_linear)"/>
</mask>
<g mask="url(#mask0)">
<path d="M6.57456 15.6707C10.2056 15.6707 13.1491 12.3511 13.1491 8.25642C13.1491 4.1617 10.2056 0.842285 6.57456 0.842285C2.94353 0.842285 0 4.1617 0 8.25642C0 12.3511 2.94353 15.6707 6.57456 15.6707Z" fill="url(#paint1_linear)"/>
</g>
<mask id="mask1" mask-type="alpha" maskUnits="userSpaceOnUse" x="38" y="0" width="14" height="16">
<path d="M44.6522 15.6707C48.2833 15.6707 51.2268 12.3511 51.2268 8.25642C51.2268 4.1617 48.2833 0.842285 44.6522 0.842285C41.0212 0.842285 38.0776 4.1617 38.0776 8.25642C38.0776 12.3511 41.0212 15.6707 44.6522 15.6707Z" fill="url(#paint2_linear)"/>
</mask>
<g mask="url(#mask1)">
<path d="M44.6522 15.6707C48.2833 15.6707 51.2268 12.3511 51.2268 8.25642C51.2268 4.1617 48.2833 0.842285 44.6522 0.842285C41.0212 0.842285 38.0776 4.1617 38.0776 8.25642C38.0776 12.3511 41.0212 15.6707 44.6522 15.6707Z" fill="url(#paint3_linear)"/>
</g>
<mask id="mask2" mask-type="alpha" maskUnits="userSpaceOnUse" x="76" y="0" width="14" height="16">
<path d="M82.7298 15.6707C86.3609 15.6707 89.3044 12.3511 89.3044 8.25642C89.3044 4.1617 86.3609 0.842285 82.7298 0.842285C79.0988 0.842285 76.1553 4.1617 76.1553 8.25642C76.1553 12.3511 79.0988 15.6707 82.7298 15.6707Z" fill="url(#paint4_linear)"/>
</mask>
<g mask="url(#mask2)">
<path d="M82.7298 15.6707C86.3609 15.6707 89.3044 12.3511 89.3044 8.25642C89.3044 4.1617 86.3609 0.842285 82.7298 0.842285C79.0988 0.842285 76.1553 4.1617 76.1553 8.25642C76.1553 12.3511 79.0988 15.6707 82.7298 15.6707Z" fill="url(#paint5_linear)"/>
</g>
<mask id="mask3" mask-type="alpha" maskUnits="userSpaceOnUse" x="114" y="0" width="14" height="16">
<path d="M120.808 15.6707C124.439 15.6707 127.383 12.3511 127.383 8.25642C127.383 4.1617 124.439 0.842285 120.808 0.842285C117.177 0.842285 114.233 4.1617 114.233 8.25642C114.233 12.3511 117.177 15.6707 120.808 15.6707Z" fill="url(#paint6_linear)"/>
</mask>
<g mask="url(#mask3)">
<path d="M120.808 15.6707C124.439 15.6707 127.383 12.3511 127.383 8.25642C127.383 4.1617 124.439 0.842285 120.808 0.842285C117.177 0.842285 114.233 4.1617 114.233 8.25642C114.233 12.3511 117.177 15.6707 120.808 15.6707Z" fill="url(#paint7_linear)"/>
</g>
<mask id="mask4" mask-type="alpha" maskUnits="userSpaceOnUse" x="152" y="0" width="14" height="16">
<path d="M158.885 15.6707C162.516 15.6707 165.46 12.3511 165.46 8.25642C165.46 4.1617 162.516 0.842285 158.885 0.842285C155.254 0.842285 152.311 4.1617 152.311 8.25642C152.311 12.3511 155.254 15.6707 158.885 15.6707Z" fill="url(#paint8_linear)"/>
</mask>
<g mask="url(#mask4)">
<path d="M158.885 15.6707C162.516 15.6707 165.46 12.3511 165.46 8.25642C165.46 4.1617 162.516 0.842285 158.885 0.842285C155.254 0.842285 152.311 4.1617 152.311 8.25642C152.311 12.3511 155.254 15.6707 158.885 15.6707Z" fill="url(#paint9_linear)"/>
</g>
<mask id="mask5" mask-type="alpha" maskUnits="userSpaceOnUse" x="0" y="38" width="14" height="15">
<path d="M6.57456 52.896C10.2056 52.896 13.1491 49.5766 13.1491 45.4819C13.1491 41.3872 10.2056 38.0679 6.57456 38.0679C2.94353 38.0679 0 41.3872 0 45.4819C0 49.5766 2.94353 52.896 6.57456 52.896Z" fill="url(#paint10_linear)"/>
</mask>
<g mask="url(#mask5)">
<path d="M6.57456 52.896C10.2056 52.896 13.1491 49.5766 13.1491 45.4819C13.1491 41.3872 10.2056 38.0679 6.57456 38.0679C2.94353 38.0679 0 41.3872 0 45.4819C0 49.5766 2.94353 52.896 6.57456 52.896Z" fill="url(#paint11_linear)"/>
</g>
<mask id="mask6" mask-type="alpha" maskUnits="userSpaceOnUse" x="38" y="38" width="14" height="15">
<path d="M44.6522 52.896C48.2833 52.896 51.2268 49.5766 51.2268 45.4819C51.2268 41.3872 48.2833 38.0679 44.6522 38.0679C41.0212 38.0679 38.0776 41.3872 38.0776 45.4819C38.0776 49.5766 41.0212 52.896 44.6522 52.896Z" fill="url(#paint12_linear)"/>
</mask>
<g mask="url(#mask6)">
<path d="M44.6522 52.896C48.2833 52.896 51.2268 49.5766 51.2268 45.4819C51.2268 41.3872 48.2833 38.0679 44.6522 38.0679C41.0212 38.0679 38.0776 41.3872 38.0776 45.4819C38.0776 49.5766 41.0212 52.896 44.6522 52.896Z" fill="url(#paint13_linear)"/>
</g>
<mask id="mask7" mask-type="alpha" maskUnits="userSpaceOnUse" x="76" y="38" width="14" height="15">
<path d="M82.7298 52.896C86.3609 52.896 89.3044 49.5766 89.3044 45.4819C89.3044 41.3872 86.3609 38.0679 82.7298 38.0679C79.0988 38.0679 76.1553 41.3872 76.1553 45.4819C76.1553 49.5766 79.0988 52.896 82.7298 52.896Z" fill="url(#paint14_linear)"/>
</mask>
<g mask="url(#mask7)">
<path d="M82.7298 52.896C86.3609 52.896 89.3044 49.5766 89.3044 45.4819C89.3044 41.3872 86.3609 38.0679 82.7298 38.0679C79.0988 38.0679 76.1553 41.3872 76.1553 45.4819C76.1553 49.5766 79.0988 52.896 82.7298 52.896Z" fill="url(#paint15_linear)"/>
</g>
<mask id="mask8" mask-type="alpha" maskUnits="userSpaceOnUse" x="114" y="38" width="14" height="15">
<path d="M120.808 52.896C124.439 52.896 127.383 49.5766 127.383 45.4819C127.383 41.3872 124.439 38.0679 120.808 38.0679C117.177 38.0679 114.233 41.3872 114.233 45.4819C114.233 49.5766 117.177 52.896 120.808 52.896Z" fill="url(#paint16_linear)"/>
</mask>
<g mask="url(#mask8)">
<path d="M120.808 52.896C124.439 52.896 127.383 49.5766 127.383 45.4819C127.383 41.3872 124.439 38.0679 120.808 38.0679C117.177 38.0679 114.233 41.3872 114.233 45.4819C114.233 49.5766 117.177 52.896 120.808 52.896Z" fill="url(#paint17_linear)"/>
</g>
<mask id="mask9" mask-type="alpha" maskUnits="userSpaceOnUse" x="152" y="38" width="14" height="15">
<path d="M158.885 52.896C162.516 52.896 165.46 49.5766 165.46 45.4819C165.46 41.3872 162.516 38.0679 158.885 38.0679C155.254 38.0679 152.311 41.3872 152.311 45.4819C152.311 49.5766 155.254 52.896 158.885 52.896Z" fill="url(#paint18_linear)"/>
</mask>
<g mask="url(#mask9)">
<path d="M158.885 52.896C162.516 52.896 165.46 49.5766 165.46 45.4819C165.46 41.3872 162.516 38.0679 158.885 38.0679C155.254 38.0679 152.311 41.3872 152.311 45.4819C152.311 49.5766 155.254 52.896 158.885 52.896Z" fill="url(#paint19_linear)"/>
</g>
<mask id="mask10" mask-type="alpha" maskUnits="userSpaceOnUse" x="0" y="75" width="14" height="16">
<path d="M6.57456 90.0449C10.2056 90.0449 13.1491 86.7254 13.1491 82.6305C13.1491 78.5356 10.2056 75.2161 6.57456 75.2161C2.94353 75.2161 0 78.5356 0 82.6305C0 86.7254 2.94353 90.0449 6.57456 90.0449Z" fill="url(#paint20_linear)"/>
</mask>
<g mask="url(#mask10)">
<path d="M6.57456 90.0449C10.2056 90.0449 13.1491 86.7254 13.1491 82.6305C13.1491 78.5356 10.2056 75.2161 6.57456 75.2161C2.94353 75.2161 0 78.5356 0 82.6305C0 86.7254 2.94353 90.0449 6.57456 90.0449Z" fill="url(#paint21_linear)"/>
</g>
<mask id="mask11" mask-type="alpha" maskUnits="userSpaceOnUse" x="38" y="75" width="14" height="16">
<path d="M44.6522 90.0449C48.2833 90.0449 51.2268 86.7254 51.2268 82.6305C51.2268 78.5356 48.2833 75.2161 44.6522 75.2161C41.0212 75.2161 38.0776 78.5356 38.0776 82.6305C38.0776 86.7254 41.0212 90.0449 44.6522 90.0449Z" fill="url(#paint22_linear)"/>
</mask>
<g mask="url(#mask11)">
<path d="M44.6522 90.0449C48.2833 90.0449 51.2268 86.7254 51.2268 82.6305C51.2268 78.5356 48.2833 75.2161 44.6522 75.2161C41.0212 75.2161 38.0776 78.5356 38.0776 82.6305C38.0776 86.7254 41.0212 90.0449 44.6522 90.0449Z" fill="url(#paint23_linear)"/>
</g>
<mask id="mask12" mask-type="alpha" maskUnits="userSpaceOnUse" x="76" y="75" width="14" height="16">
<path d="M82.7298 90.0449C86.3609 90.0449 89.3044 86.7254 89.3044 82.6305C89.3044 78.5356 86.3609 75.2161 82.7298 75.2161C79.0988 75.2161 76.1553 78.5356 76.1553 82.6305C76.1553 86.7254 79.0988 90.0449 82.7298 90.0449Z" fill="url(#paint24_linear)"/>
</mask>
<g mask="url(#mask12)">
<path d="M82.7298 90.0449C86.3609 90.0449 89.3044 86.7254 89.3044 82.6305C89.3044 78.5356 86.3609 75.2161 82.7298 75.2161C79.0988 75.2161 76.1553 78.5356 76.1553 82.6305C76.1553 86.7254 79.0988 90.0449 82.7298 90.0449Z" fill="url(#paint25_linear)"/>
</g>
<mask id="mask13" mask-type="alpha" maskUnits="userSpaceOnUse" x="114" y="75" width="14" height="16">
<path d="M120.808 90.0449C124.439 90.0449 127.383 86.7254 127.383 82.6305C127.383 78.5356 124.439 75.2161 120.808 75.2161C117.177 75.2161 114.233 78.5356 114.233 82.6305C114.233 86.7254 117.177 90.0449 120.808 90.0449Z" fill="url(#paint26_linear)"/>
</mask>
<g mask="url(#mask13)">
<path d="M120.808 90.0449C124.439 90.0449 127.383 86.7254 127.383 82.6305C127.383 78.5356 124.439 75.2161 120.808 75.2161C117.177 75.2161 114.233 78.5356 114.233 82.6305C114.233 86.7254 117.177 90.0449 120.808 90.0449Z" fill="url(#paint27_linear)"/>
</g>
<mask id="mask14" mask-type="alpha" maskUnits="userSpaceOnUse" x="152" y="75" width="14" height="16">
<path d="M158.885 90.0449C162.516 90.0449 165.46 86.7254 165.46 82.6305C165.46 78.5356 162.516 75.2161 158.885 75.2161C155.254 75.2161 152.311 78.5356 152.311 82.6305C152.311 86.7254 155.254 90.0449 158.885 90.0449Z" fill="url(#paint28_linear)"/>
</mask>
<g mask="url(#mask14)">
<path d="M158.885 90.0449C162.516 90.0449 165.46 86.7254 165.46 82.6305C165.46 78.5356 162.516 75.2161 158.885 75.2161C155.254 75.2161 152.311 78.5356 152.311 82.6305C152.311 86.7254 155.254 90.0449 158.885 90.0449Z" fill="url(#paint29_linear)"/>
</g>
<mask id="mask15" mask-type="alpha" maskUnits="userSpaceOnUse" x="0" y="112" width="14" height="16">
<path d="M6.57456 127.27C10.2056 127.27 13.1491 123.95 13.1491 119.855C13.1491 115.76 10.2056 112.441 6.57456 112.441C2.94353 112.441 0 115.76 0 119.855C0 123.95 2.94353 127.27 6.57456 127.27Z" fill="url(#paint30_linear)"/>
</mask>
<g mask="url(#mask15)">
<path d="M6.57456 127.27C10.2056 127.27 13.1491 123.95 13.1491 119.855C13.1491 115.76 10.2056 112.441 6.57456 112.441C2.94353 112.441 0 115.76 0 119.855C0 123.95 2.94353 127.27 6.57456 127.27Z" fill="url(#paint31_linear)"/>
</g>
<mask id="mask16" mask-type="alpha" maskUnits="userSpaceOnUse" x="38" y="112" width="14" height="16">
<path d="M44.6522 127.27C48.2833 127.27 51.2268 123.95 51.2268 119.855C51.2268 115.76 48.2833 112.441 44.6522 112.441C41.0212 112.441 38.0776 115.76 38.0776 119.855C38.0776 123.95 41.0212 127.27 44.6522 127.27Z" fill="url(#paint32_linear)"/>
</mask>
<g mask="url(#mask16)">
<path d="M44.6522 127.27C48.2833 127.27 51.2268 123.95 51.2268 119.855C51.2268 115.76 48.2833 112.441 44.6522 112.441C41.0212 112.441 38.0776 115.76 38.0776 119.855C38.0776 123.95 41.0212 127.27 44.6522 127.27Z" fill="url(#paint33_linear)"/>
</g>
<mask id="mask17" mask-type="alpha" maskUnits="userSpaceOnUse" x="76" y="112" width="14" height="16">
<path d="M82.7298 127.27C86.3609 127.27 89.3044 123.95 89.3044 119.855C89.3044 115.76 86.3609 112.441 82.7298 112.441C79.0988 112.441 76.1553 115.76 76.1553 119.855C76.1553 123.95 79.0988 127.27 82.7298 127.27Z" fill="url(#paint34_linear)"/>
</mask>
<g mask="url(#mask17)">
<path d="M82.7298 127.27C86.3609 127.27 89.3044 123.95 89.3044 119.855C89.3044 115.76 86.3609 112.441 82.7298 112.441C79.0988 112.441 76.1553 115.76 76.1553 119.855C76.1553 123.95 79.0988 127.27 82.7298 127.27Z" fill="url(#paint35_linear)"/>
</g>
<mask id="mask18" mask-type="alpha" maskUnits="userSpaceOnUse" x="114" y="112" width="14" height="16">
<path d="M120.808 127.27C124.439 127.27 127.383 123.95 127.383 119.855C127.383 115.76 124.439 112.441 120.808 112.441C117.177 112.441 114.233 115.76 114.233 119.855C114.233 123.95 117.177 127.27 120.808 127.27Z" fill="url(#paint36_linear)"/>
</mask>
<g mask="url(#mask18)">
<path d="M120.808 127.27C124.439 127.27 127.383 123.95 127.383 119.855C127.383 115.76 124.439 112.441 120.808 112.441C117.177 112.441 114.233 115.76 114.233 119.855C114.233 123.95 117.177 127.27 120.808 127.27Z" fill="url(#paint37_linear)"/>
</g>
<mask id="mask19" mask-type="alpha" maskUnits="userSpaceOnUse" x="152" y="112" width="14" height="16">
<path d="M158.885 127.27C162.516 127.27 165.46 123.95 165.46 119.855C165.46 115.76 162.516 112.441 158.885 112.441C155.254 112.441 152.311 115.76 152.311 119.855C152.311 123.95 155.254 127.27 158.885 127.27Z" fill="url(#paint38_linear)"/>
</mask>
<g mask="url(#mask19)">
<path d="M158.885 127.27C162.516 127.27 165.46 123.95 165.46 119.855C165.46 115.76 162.516 112.441 158.885 112.441C155.254 112.441 152.311 115.76 152.311 119.855C152.311 123.95 155.254 127.27 158.885 127.27Z" fill="url(#paint39_linear)"/>
</g>
<mask id="mask20" mask-type="alpha" maskUnits="userSpaceOnUse" x="0" y="149" width="14" height="16">
<path d="M6.57456 164.418C10.2056 164.418 13.1491 161.099 13.1491 157.004C13.1491 152.909 10.2056 149.59 6.57456 149.59C2.94353 149.59 0 152.909 0 157.004C0 161.099 2.94353 164.418 6.57456 164.418Z" fill="url(#paint40_linear)"/>
</mask>
<g mask="url(#mask20)">
<path d="M6.57456 164.418C10.2056 164.418 13.1491 161.099 13.1491 157.004C13.1491 152.909 10.2056 149.59 6.57456 149.59C2.94353 149.59 0 152.909 0 157.004C0 161.099 2.94353 164.418 6.57456 164.418Z" fill="url(#paint41_linear)"/>
</g>
<mask id="mask21" mask-type="alpha" maskUnits="userSpaceOnUse" x="38" y="149" width="14" height="16">
<path d="M44.6522 164.418C48.2833 164.418 51.2268 161.099 51.2268 157.004C51.2268 152.909 48.2833 149.59 44.6522 149.59C41.0212 149.59 38.0776 152.909 38.0776 157.004C38.0776 161.099 41.0212 164.418 44.6522 164.418Z" fill="url(#paint42_linear)"/>
</mask>
<g mask="url(#mask21)">
<path d="M44.6522 164.418C48.2833 164.418 51.2268 161.099 51.2268 157.004C51.2268 152.909 48.2833 149.59 44.6522 149.59C41.0212 149.59 38.0776 152.909 38.0776 157.004C38.0776 161.099 41.0212 164.418 44.6522 164.418Z" fill="url(#paint43_linear)"/>
</g>
<mask id="mask22" mask-type="alpha" maskUnits="userSpaceOnUse" x="76" y="149" width="14" height="16">
<path d="M82.7298 164.418C86.3609 164.418 89.3044 161.099 89.3044 157.004C89.3044 152.909 86.3609 149.59 82.7298 149.59C79.0988 149.59 76.1553 152.909 76.1553 157.004C76.1553 161.099 79.0988 164.418 82.7298 164.418Z" fill="url(#paint44_linear)"/>
</mask>
<g mask="url(#mask22)">
<path d="M82.7298 164.418C86.3609 164.418 89.3044 161.099 89.3044 157.004C89.3044 152.909 86.3609 149.59 82.7298 149.59C79.0988 149.59 76.1553 152.909 76.1553 157.004C76.1553 161.099 79.0988 164.418 82.7298 164.418Z" fill="url(#paint45_linear)"/>
</g>
<mask id="mask23" mask-type="alpha" maskUnits="userSpaceOnUse" x="114" y="149" width="14" height="16">
<path d="M120.808 164.418C124.439 164.418 127.383 161.099 127.383 157.004C127.383 152.909 124.439 149.59 120.808 149.59C117.177 149.59 114.233 152.909 114.233 157.004C114.233 161.099 117.177 164.418 120.808 164.418Z" fill="url(#paint46_linear)"/>
</mask>
<g mask="url(#mask23)">
<path d="M120.808 164.418C124.439 164.418 127.383 161.099 127.383 157.004C127.383 152.909 124.439 149.59 120.808 149.59C117.177 149.59 114.233 152.909 114.233 157.004C114.233 161.099 117.177 164.418 120.808 164.418Z" fill="url(#paint47_linear)"/>
</g>
<mask id="mask24" mask-type="alpha" maskUnits="userSpaceOnUse" x="152" y="149" width="14" height="16">
<path d="M158.885 164.418C162.516 164.418 165.46 161.099 165.46 157.004C165.46 152.909 162.516 149.59 158.885 149.59C155.254 149.59 152.311 152.909 152.311 157.004C152.311 161.099 155.254 164.418 158.885 164.418Z" fill="url(#paint48_linear)"/>
</mask>
<g mask="url(#mask24)">
<path d="M158.885 164.418C162.516 164.418 165.46 161.099 165.46 157.004C165.46 152.909 162.516 149.59 158.885 149.59C155.254 149.59 152.311 152.909 152.311 157.004C152.311 161.099 155.254 164.418 158.885 164.418Z" fill="url(#paint49_linear)"/>
</g>
</g>
<defs>
<linearGradient id="paint0_linear" x1="69.1562" y1="187.366" x2="-41.5882" y2="-61.9196" gradientUnits="userSpaceOnUse">
<stop/>
<stop offset="1" stop-color="white"/>
</linearGradient>
<linearGradient id="paint1_linear" x1="69.1562" y1="187.366" x2="-41.5882" y2="-61.9196" gradientUnits="userSpaceOnUse">
<stop stop-color="#97C3F9"/>
<stop offset="1" stop-color="#93C1F9"/>
</linearGradient>
<linearGradient id="paint2_linear" x1="102.108" y1="172.728" x2="-8.63644" y2="-76.5579" gradientUnits="userSpaceOnUse">
<stop/>
<stop offset="1" stop-color="white"/>
</linearGradient>
<linearGradient id="paint3_linear" x1="102.108" y1="172.728" x2="-8.63644" y2="-76.5579" gradientUnits="userSpaceOnUse">
<stop stop-color="#97C3F9"/>
<stop offset="1" stop-color="#93C1F9"/>
</linearGradient>
<linearGradient id="paint4_linear" x1="135.059" y1="158.089" x2="24.3146" y2="-91.1959" gradientUnits="userSpaceOnUse">
<stop/>
<stop offset="1" stop-color="white"/>
</linearGradient>
<linearGradient id="paint5_linear" x1="135.059" y1="158.089" x2="24.3146" y2="-91.1959" gradientUnits="userSpaceOnUse">
<stop stop-color="#97C3F9"/>
<stop offset="1" stop-color="#93C1F9"/>
</linearGradient>
<linearGradient id="paint6_linear" x1="168.011" y1="143.45" x2="57.2668" y2="-105.835" gradientUnits="userSpaceOnUse">
<stop/>
<stop offset="1" stop-color="white"/>
</linearGradient>
<linearGradient id="paint7_linear" x1="168.011" y1="143.45" x2="57.2668" y2="-105.835" gradientUnits="userSpaceOnUse">
<stop stop-color="#97C3F9"/>
<stop offset="1" stop-color="#93C1F9"/>
</linearGradient>
<linearGradient id="paint8_linear" x1="200.961" y1="128.812" x2="90.2169" y2="-120.473" gradientUnits="userSpaceOnUse">
<stop/>
<stop offset="1" stop-color="white"/>
</linearGradient>
<linearGradient id="paint9_linear" x1="200.961" y1="128.812" x2="90.2169" y2="-120.473" gradientUnits="userSpaceOnUse">
<stop stop-color="#97C3F9"/>
<stop offset="1" stop-color="#93C1F9"/>
</linearGradient>
<linearGradient id="paint10_linear" x1="57.9116" y1="192.36" x2="-52.8297" y2="-56.9228" gradientUnits="userSpaceOnUse">
<stop/>
<stop offset="1" stop-color="white"/>
</linearGradient>
<linearGradient id="paint11_linear" x1="57.9116" y1="192.36" x2="-52.8297" y2="-56.9228" gradientUnits="userSpaceOnUse">
<stop stop-color="#97C3F9"/>
<stop offset="1" stop-color="#93C1F9"/>
</linearGradient>
<linearGradient id="paint12_linear" x1="90.8628" y1="177.721" x2="-19.8783" y2="-71.5619" gradientUnits="userSpaceOnUse">
<stop/>
<stop offset="1" stop-color="white"/>
</linearGradient>
<linearGradient id="paint13_linear" x1="90.8628" y1="177.721" x2="-19.8783" y2="-71.5619" gradientUnits="userSpaceOnUse">
<stop stop-color="#97C3F9"/>
<stop offset="1" stop-color="#93C1F9"/>
</linearGradient>
<linearGradient id="paint14_linear" x1="123.814" y1="163.083" x2="13.0727" y2="-86.1999" gradientUnits="userSpaceOnUse">
<stop/>
<stop offset="1" stop-color="white"/>
</linearGradient>
<linearGradient id="paint15_linear" x1="123.814" y1="163.083" x2="13.0727" y2="-86.1999" gradientUnits="userSpaceOnUse">
<stop stop-color="#97C3F9"/>
<stop offset="1" stop-color="#93C1F9"/>
</linearGradient>
<linearGradient id="paint16_linear" x1="156.766" y1="148.444" x2="46.0246" y2="-100.838" gradientUnits="userSpaceOnUse">
<stop/>
<stop offset="1" stop-color="white"/>
</linearGradient>
<linearGradient id="paint17_linear" x1="156.766" y1="148.444" x2="46.0246" y2="-100.838" gradientUnits="userSpaceOnUse">
<stop stop-color="#97C3F9"/>
<stop offset="1" stop-color="#93C1F9"/>
</linearGradient>
<linearGradient id="paint18_linear" x1="189.717" y1="133.806" x2="78.9754" y2="-115.476" gradientUnits="userSpaceOnUse">
<stop/>
<stop offset="1" stop-color="white"/>
</linearGradient>
<linearGradient id="paint19_linear" x1="189.717" y1="133.806" x2="78.9754" y2="-115.476" gradientUnits="userSpaceOnUse">
<stop stop-color="#97C3F9"/>
<stop offset="1" stop-color="#93C1F9"/>
</linearGradient>
<linearGradient id="paint20_linear" x1="46.6666" y1="197.362" x2="-64.0838" y2="-51.9294" gradientUnits="userSpaceOnUse">
<stop/>
<stop offset="1" stop-color="white"/>
</linearGradient>
<linearGradient id="paint21_linear" x1="46.6666" y1="197.362" x2="-64.0838" y2="-51.9294" gradientUnits="userSpaceOnUse">
<stop stop-color="#97C3F9"/>
<stop offset="1" stop-color="#93C1F9"/>
</linearGradient>
<linearGradient id="paint22_linear" x1="79.618" y1="182.722" x2="-31.1323" y2="-66.5687" gradientUnits="userSpaceOnUse">
<stop/>
<stop offset="1" stop-color="white"/>
</linearGradient>
<linearGradient id="paint23_linear" x1="79.618" y1="182.722" x2="-31.1323" y2="-66.5687" gradientUnits="userSpaceOnUse">
<stop stop-color="#97C3F9"/>
<stop offset="1" stop-color="#93C1F9"/>
</linearGradient>
<linearGradient id="paint24_linear" x1="112.569" y1="168.083" x2="1.8188" y2="-81.2074" gradientUnits="userSpaceOnUse">
<stop/>
<stop offset="1" stop-color="white"/>
</linearGradient>
<linearGradient id="paint25_linear" x1="112.569" y1="168.083" x2="1.8188" y2="-81.2074" gradientUnits="userSpaceOnUse">
<stop stop-color="#97C3F9"/>
<stop offset="1" stop-color="#93C1F9"/>
</linearGradient>
<linearGradient id="paint26_linear" x1="145.521" y1="153.444" x2="34.7706" y2="-95.8468" gradientUnits="userSpaceOnUse">
<stop/>
<stop offset="1" stop-color="white"/>
</linearGradient>
<linearGradient id="paint27_linear" x1="145.521" y1="153.444" x2="34.7706" y2="-95.8468" gradientUnits="userSpaceOnUse">
<stop stop-color="#97C3F9"/>
<stop offset="1" stop-color="#93C1F9"/>
</linearGradient>
<linearGradient id="paint28_linear" x1="178.472" y1="138.805" x2="67.7214" y2="-110.486" gradientUnits="userSpaceOnUse">
<stop/>
<stop offset="1" stop-color="white"/>
</linearGradient>
<linearGradient id="paint29_linear" x1="178.472" y1="138.805" x2="67.7214" y2="-110.486" gradientUnits="userSpaceOnUse">
<stop stop-color="#97C3F9"/>
<stop offset="1" stop-color="#93C1F9"/>
</linearGradient>
<linearGradient id="paint30_linear" x1="35.4218" y1="202.355" x2="-75.3286" y2="-46.9355" gradientUnits="userSpaceOnUse">
<stop/>
<stop offset="1" stop-color="white"/>
</linearGradient>
<linearGradient id="paint31_linear" x1="35.4218" y1="202.355" x2="-75.3286" y2="-46.9355" gradientUnits="userSpaceOnUse">
<stop stop-color="#97C3F9"/>
<stop offset="1" stop-color="#93C1F9"/>
</linearGradient>
<linearGradient id="paint32_linear" x1="68.3732" y1="187.716" x2="-42.3771" y2="-61.5747" gradientUnits="userSpaceOnUse">
<stop/>
<stop offset="1" stop-color="white"/>
</linearGradient>
<linearGradient id="paint33_linear" x1="68.3732" y1="187.716" x2="-42.3771" y2="-61.5747" gradientUnits="userSpaceOnUse">
<stop stop-color="#97C3F9"/>
<stop offset="1" stop-color="#93C1F9"/>
</linearGradient>
<linearGradient id="paint34_linear" x1="101.324" y1="173.077" x2="-9.42604" y2="-76.2134" gradientUnits="userSpaceOnUse">
<stop/>
<stop offset="1" stop-color="white"/>
</linearGradient>
<linearGradient id="paint35_linear" x1="101.324" y1="173.077" x2="-9.42604" y2="-76.2134" gradientUnits="userSpaceOnUse">
<stop stop-color="#97C3F9"/>
<stop offset="1" stop-color="#93C1F9"/>
</linearGradient>
<linearGradient id="paint36_linear" x1="134.276" y1="158.438" x2="23.5258" y2="-90.8528" gradientUnits="userSpaceOnUse">
<stop/>
<stop offset="1" stop-color="white"/>
</linearGradient>
<linearGradient id="paint37_linear" x1="134.276" y1="158.438" x2="23.5258" y2="-90.8528" gradientUnits="userSpaceOnUse">
<stop stop-color="#97C3F9"/>
<stop offset="1" stop-color="#93C1F9"/>
</linearGradient>
<linearGradient id="paint38_linear" x1="167.227" y1="143.799" x2="56.4766" y2="-105.492" gradientUnits="userSpaceOnUse">
<stop/>
<stop offset="1" stop-color="white"/>
</linearGradient>
<linearGradient id="paint39_linear" x1="167.227" y1="143.799" x2="56.4766" y2="-105.492" gradientUnits="userSpaceOnUse">
<stop stop-color="#97C3F9"/>
<stop offset="1" stop-color="#93C1F9"/>
</linearGradient>
<linearGradient id="paint40_linear" x1="24.177" y1="207.348" x2="-86.5673" y2="-41.9369" gradientUnits="userSpaceOnUse">
<stop/>
<stop offset="1" stop-color="white"/>
</linearGradient>
<linearGradient id="paint41_linear" x1="24.177" y1="207.348" x2="-86.5673" y2="-41.9369" gradientUnits="userSpaceOnUse">
<stop stop-color="#97C3F9"/>
<stop offset="1" stop-color="#93C1F9"/>
</linearGradient>
<linearGradient id="paint42_linear" x1="57.1283" y1="192.71" x2="-53.6158" y2="-56.5756" gradientUnits="userSpaceOnUse">
<stop/>
<stop offset="1" stop-color="white"/>
</linearGradient>
<linearGradient id="paint43_linear" x1="57.1283" y1="192.71" x2="-53.6158" y2="-56.5756" gradientUnits="userSpaceOnUse">
<stop stop-color="#97C3F9"/>
<stop offset="1" stop-color="#93C1F9"/>
</linearGradient>
<linearGradient id="paint44_linear" x1="90.0795" y1="178.071" x2="-20.6647" y2="-71.2137" gradientUnits="userSpaceOnUse">
<stop/>
<stop offset="1" stop-color="white"/>
</linearGradient>
<linearGradient id="paint45_linear" x1="90.0795" y1="178.071" x2="-20.6647" y2="-71.2137" gradientUnits="userSpaceOnUse">
<stop stop-color="#97C3F9"/>
<stop offset="1" stop-color="#93C1F9"/>
</linearGradient>
<linearGradient id="paint46_linear" x1="123.031" y1="163.433" x2="12.2871" y2="-85.8527" gradientUnits="userSpaceOnUse">
<stop/>
<stop offset="1" stop-color="white"/>
</linearGradient>
<linearGradient id="paint47_linear" x1="123.031" y1="163.433" x2="12.2871" y2="-85.8527" gradientUnits="userSpaceOnUse">
<stop stop-color="#97C3F9"/>
<stop offset="1" stop-color="#93C1F9"/>
</linearGradient>
<linearGradient id="paint48_linear" x1="155.982" y1="148.794" x2="45.2379" y2="-100.491" gradientUnits="userSpaceOnUse">
<stop/>
<stop offset="1" stop-color="white"/>
</linearGradient>
<linearGradient id="paint49_linear" x1="155.982" y1="148.794" x2="45.2379" y2="-100.491" gradientUnits="userSpaceOnUse">
<stop stop-color="#97C3F9"/>
<stop offset="1" stop-color="#93C1F9"/>
</linearGradient>
</defs>
</svg>
