<svg width="72" height="58" viewBox="0 0 72 58" fill="none" xmlns="http://www.w3.org/2000/svg">
<path d="M36 2L37.2494 0.438262C36.519 -0.146087 35.481 -0.146087 34.7506 0.438262L36 2ZM56 18H58C58 17.3924 57.7238 16.8178 57.2494 16.4383L56 18ZM16 18L14.7506 16.4383C14.2762 16.8178 14 17.3924 14 18H16ZM16 36.3589H14C14 37.2064 14.5343 37.962 15.3334 38.2445L16 36.3589ZM19.1096 37.9906L20.219 36.3265L20.219 36.3265L19.1096 37.9906ZM19.5626 38.2926L18.4532 39.9567L18.4532 39.9567L19.5626 38.2926ZM28.4378 38.2926L29.5472 39.9567L29.5472 39.9567L28.4378 38.2926ZM29.3438 37.6886L28.2344 36.0245L28.2344 36.0245L29.3438 37.6886ZM42.6566 37.6886L43.766 36.0245L43.766 36.0245L42.6566 37.6886ZM43.1096 37.9906L42.0002 39.6547L42.0002 39.6547L43.1096 37.9906ZM43.5626 38.2926L44.672 36.6285L44.672 36.6285L43.5626 38.2926ZM52.4378 38.2926L53.5472 39.9567L53.5472 39.9567L52.4378 38.2926ZM53.3438 37.6886L52.2344 36.0245L52.2343 36.0245L53.3438 37.6886ZM56 36.359L56.6667 38.2446C57.4658 37.9621 58 37.2065 58 36.359H56ZM42 18H44C44 16.8954 43.1046 16 42 16V18ZM42 30V32C43.1046 32 44 31.1046 44 30H42ZM30 18V16C28.8954 16 28 16.8954 28 18H30ZM30 30H28C28 31.1046 28.8954 32 30 32V30ZM34.7506 3.56174L54.7506 19.5617L57.2494 16.4383L37.2494 0.438262L34.7506 3.56174ZM17.2494 19.5617L37.2494 3.56174L34.7506 0.438262L14.7506 16.4383L17.2494 19.5617ZM18 36.3589L18 18H14L14 36.3589H18ZM19.766 36.0245C18.7868 35.3717 17.745 34.8545 16.6666 34.4732L15.3334 38.2445C16.1026 38.5164 16.8465 38.8857 17.5472 39.3527L19.766 36.0245ZM20.219 36.3265L19.766 36.0245L17.5472 39.3527L18.0002 39.6547L20.219 36.3265ZM20.672 36.6285L20.219 36.3265L18.0002 39.6547L18.4532 39.9567L20.672 36.6285ZM27.3284 36.6285C25.313 37.9721 22.6874 37.9721 20.672 36.6285L18.4532 39.9567C21.8122 42.1961 26.1882 42.1961 29.5472 39.9567L27.3284 36.6285ZM28.2344 36.0245L27.3284 36.6285L29.5472 39.9567L30.4532 39.3527L28.2344 36.0245ZM43.766 36.0245C39.0634 32.8895 32.9369 32.8895 28.2344 36.0245L30.4532 39.3527C33.8122 37.1134 38.1882 37.1134 41.5472 39.3527L43.766 36.0245ZM44.219 36.3265L43.766 36.0245L41.5472 39.3527L42.0002 39.6547L44.219 36.3265ZM44.672 36.6285L44.2189 36.3265L42.0002 39.6547L42.4532 39.9567L44.672 36.6285ZM51.3284 36.6285C49.313 37.9721 46.6874 37.9721 44.672 36.6285L42.4532 39.9567C45.8122 42.1961 50.1882 42.1961 53.5472 39.9567L51.3284 36.6285ZM52.2343 36.0245L51.3284 36.6285L53.5472 39.9567L54.4532 39.3527L52.2343 36.0245ZM55.3333 34.4734C54.2551 34.8546 53.2134 35.3718 52.2344 36.0245L54.4532 39.3527C55.1537 38.8857 55.8975 38.5165 56.6667 38.2446L55.3333 34.4734ZM54 18L54 36.359H58L58 18H54ZM40 18V30H44V18H40ZM30 20H42V16L30 16L30 20ZM32 30L32 18H28L28 30H32ZM42 28H30L30 32H42V28Z" fill="#2D9CDB"/>
<path d="M63.5 24L60.5 21.6L36 2L11.5 21.6L8.5 24" stroke="#2D9CDB" stroke-width="4" stroke-linecap="round" stroke-linejoin="round"/>
<path d="M51 14L49.7506 15.5617C50.3509 16.042 51.1734 16.1356 51.8664 15.8026C52.5593 15.4696 53 14.7688 53 14H51ZM45 9.2H43C43 9.80757 43.2762 10.3822 43.7506 10.7617L45 9.2ZM49 4V14L53 14V4L49 4ZM50 5C49.4477 5 49 4.55228 49 4L53 4C53 2.34315 51.6569 1 50 1V5ZM46 5L50 5V1L46 1V5ZM47 4C47 4.55229 46.5523 5 46 5V1C44.3431 1 43 2.34314 43 4L47 4ZM47 9.2V4L43 4V9.2H47ZM43.7506 10.7617L49.7506 15.5617L52.2494 12.4383L46.2494 7.63826L43.7506 10.7617Z" fill="#2D9CDB"/>
<path d="M6.45316 45.6984L7.56256 47.3625L7.56256 47.3625L6.45316 45.6984ZM5.54716 46.3024L4.43776 44.6383L4.43776 44.6383L5.54716 46.3024ZM18.0002 46.0004L19.1096 44.3363L19.1096 44.3363L18.0002 46.0004ZM17.5472 45.6984L16.4378 47.3625L16.4378 47.3625L17.5472 45.6984ZM2.79996 45.4765C1.76527 45.8631 1.23989 47.0153 1.62651 48.05C2.01313 49.0847 3.16534 49.6101 4.20004 49.2235L2.79996 45.4765ZM30.4532 45.6984L29.3438 44.0343V44.0343L30.4532 45.6984ZM29.5472 46.3024L28.4378 44.6383L29.5472 46.3024ZM18.4532 46.3024L17.3438 47.9665L17.3438 47.9665L18.4532 46.3024ZM42.0002 46.0004L43.1096 44.3363L43.1096 44.3363L42.0002 46.0004ZM41.5472 45.6984L40.4378 47.3625L40.4378 47.3625L41.5472 45.6984ZM54.4532 45.6984L53.3438 44.0343V44.0343L54.4532 45.6984ZM53.5472 46.3024L54.6566 47.9665V47.9665L53.5472 46.3024ZM42.4532 46.3024L43.5626 44.6383V44.6383L42.4532 46.3024ZM66.0002 46.0004L67.1096 44.3363L67.1096 44.3363L66.0002 46.0004ZM65.5472 45.6984L64.4378 47.3625L64.4378 47.3625L65.5472 45.6984ZM66.4532 46.3024L67.5626 44.6383V44.6383L66.4532 46.3024ZM67.7999 49.2233C68.8346 49.61 69.9868 49.0846 70.3735 48.05C70.7601 47.0153 70.2348 45.863 69.2001 45.4764L67.7999 49.2233ZM5.34376 44.0343L4.43776 44.6383L6.65656 47.9665L7.56256 47.3625L5.34376 44.0343ZM19.1096 44.3363L18.6566 44.0343L16.4378 47.3625L16.8908 47.6645L19.1096 44.3363ZM7.56256 47.3625C10.2498 45.5711 13.7506 45.5711 16.4378 47.3625L18.6566 44.0343C14.6258 41.3471 9.37455 41.3471 5.34376 44.0343L7.56256 47.3625ZM4.43776 44.6383C3.91765 44.9851 3.36789 45.2643 2.79996 45.4765L4.20004 49.2235C5.0533 48.9046 5.8781 48.4855 6.65656 47.9665L4.43776 44.6383ZM29.3438 44.0343L28.4378 44.6383L30.6566 47.9665L31.5626 47.3625L29.3438 44.0343ZM19.5626 44.6383L19.1096 44.3363L16.8908 47.6645L17.3438 47.9665L19.5626 44.6383ZM43.1096 44.3363L42.6566 44.0343L40.4378 47.3625L40.8908 47.6645L43.1096 44.3363ZM31.5626 47.3625C34.2498 45.5711 37.7506 45.5711 40.4378 47.3625L42.6566 44.0343C38.6258 41.3471 33.3746 41.3471 29.3438 44.0343L31.5626 47.3625ZM28.4378 44.6383C25.7506 46.4298 22.2498 46.4298 19.5626 44.6383L17.3438 47.9665C21.3746 50.6537 26.6258 50.6537 30.6566 47.9665L28.4378 44.6383ZM53.3438 44.0343L52.4378 44.6383L54.6566 47.9665L55.5626 47.3625L53.3438 44.0343ZM43.5626 44.6383L43.1096 44.3363L40.8908 47.6645L41.3438 47.9665L43.5626 44.6383ZM67.1096 44.3363L66.6566 44.0343L64.4378 47.3625L64.8908 47.6645L67.1096 44.3363ZM55.5626 47.3625C58.2498 45.5711 61.7506 45.5711 64.4378 47.3625L66.6566 44.0343C62.6258 41.3471 57.3745 41.3471 53.3438 44.0343L55.5626 47.3625ZM52.4378 44.6383C49.7506 46.4298 46.2498 46.4298 43.5626 44.6383L41.3438 47.9665C45.3745 50.6537 50.6258 50.6537 54.6566 47.9665L52.4378 44.6383ZM67.5626 44.6383L67.1096 44.3363L64.8908 47.6645L65.3438 47.9665L67.5626 44.6383ZM69.2001 45.4764C68.6323 45.2642 68.0826 44.985 67.5626 44.6383L65.3438 47.9665C66.1221 48.4854 66.9468 48.9045 67.7999 49.2233L69.2001 45.4764Z" fill="#2D9CDB"/>
<path d="M18.0002 53.7699L19.1096 52.1058L19.1096 52.1058L18.0002 53.7699ZM17.5472 53.4679L16.4378 55.132L16.4378 55.1321L17.5472 53.4679ZM16.2 50.5469C15.1653 50.1603 14.0131 50.6857 13.6265 51.7204C13.2399 52.7551 13.7653 53.9073 14.8 54.2939L16.2 50.5469ZM30.4532 53.4679L31.5626 55.1321V55.1321L30.4532 53.4679ZM29.5472 54.0719L28.4378 52.4078L28.4378 52.4078L29.5472 54.0719ZM18.4532 54.0719L17.3438 55.736L17.3438 55.736L18.4532 54.0719ZM42.0002 53.7699L43.1096 52.1058V52.1058L42.0002 53.7699ZM41.5472 53.4679L40.4378 55.132L40.4378 55.1321L41.5472 53.4679ZM54.4532 53.4679L55.5626 55.1321L55.5626 55.132L54.4532 53.4679ZM53.5472 54.0719L52.4378 52.4078L52.4378 52.4078L53.5472 54.0719ZM42.4532 54.0719L43.5626 52.4078V52.4078L42.4532 54.0719ZM57.2001 54.294C58.2348 53.9073 58.7601 52.7551 58.3735 51.7204C57.9868 50.6857 56.8346 50.1604 55.7999 50.547L57.2001 54.294ZM19.1096 52.1058L18.6566 51.8038L16.4378 55.1321L16.8908 55.434L19.1096 52.1058ZM14.8 54.2939C15.3679 54.5061 15.9177 54.7853 16.4378 55.132L18.6566 51.8038C17.8781 51.2849 17.0533 50.8657 16.2 50.5469L14.8 54.2939ZM29.3438 51.8038L28.4378 52.4078L30.6566 55.736L31.5626 55.1321L29.3438 51.8038ZM19.5626 52.4078L19.1096 52.1058L16.8908 55.434L17.3438 55.736L19.5626 52.4078ZM43.1096 52.1058L42.6566 51.8038L40.4378 55.1321L40.8908 55.434L43.1096 52.1058ZM31.5626 55.1321C34.2498 53.3406 37.7506 53.3406 40.4378 55.132L42.6566 51.8038C38.6258 49.1167 33.3746 49.1167 29.3438 51.8038L31.5626 55.1321ZM28.4378 52.4078C25.7506 54.1993 22.2498 54.1993 19.5626 52.4078L17.3438 55.736C21.3746 58.4232 26.6258 58.4232 30.6566 55.736L28.4378 52.4078ZM53.3438 51.8038L52.4378 52.4078L54.6566 55.736L55.5626 55.1321L53.3438 51.8038ZM43.5626 52.4078L43.1096 52.1058L40.8908 55.434L41.3438 55.736L43.5626 52.4078ZM55.5626 55.132C56.0826 54.7854 56.6323 54.5062 57.2001 54.294L55.7999 50.547C54.9468 50.8659 54.1221 51.285 53.3438 51.8039L55.5626 55.132ZM52.4378 52.4078C49.7506 54.1993 46.2498 54.1993 43.5626 52.4078L41.3438 55.736C45.3746 58.4232 50.6258 58.4232 54.6566 55.736L52.4378 52.4078Z" fill="#2D9CDB"/>
</svg>
