<svg width="56" height="56" viewBox="0 0 56 56" fill="none" xmlns="http://www.w3.org/2000/svg">
<path fill-rule="evenodd" clip-rule="evenodd" d="M18 13.1255H10.7852C15.6116 7.60392 20.898 5.62549 28 5.62549C40.4264 5.62549 50.5 15.6991 50.5 28.1255C50.5 40.5519 40.4264 50.6255 28 50.6255C15.5736 50.6255 5.5 40.5519 5.5 28.1255H0.5C0.5 43.3133 12.8122 55.6255 28 55.6255C43.1878 55.6255 55.5 43.3133 55.5 28.1255C55.5 12.9377 43.1878 0.625488 28 0.625488C19.9666 0.625488 13.5927 2.90188 8 8.76661V3.10352H3V18.1255H18V13.1255ZM38.5329 29.5599H28.5329V17.0599H23.5329V34.5599H38.5329V29.5599Z" fill="#2D9CDB"/>
</svg>
