<svg width="58" height="53" viewBox="0 0 58 53" fill="none" xmlns="http://www.w3.org/2000/svg">
<path d="M12.875 11.9286C12.875 10.824 11.9796 9.9286 10.875 9.9286C9.77043 9.9286 8.875 10.824 8.875 11.9286H12.875ZM45.125 41.0715C45.125 42.176 46.0204 43.0715 47.125 43.0715C48.2296 43.0715 49.125 42.176 49.125 41.0715H45.125ZM12.875 39.2947L12.875 11.9286H8.875L8.875 39.2947H12.875ZM45.125 13.7054L45.125 41.0715H49.125L49.125 13.7054H45.125ZM31 39.2947L31 13.7054H27L27 39.2947H31ZM38.0625 2.64289C31.9528 2.64289 27 7.59575 27 13.7054H31C31 9.80489 34.162 6.64289 38.0625 6.64289V2.64289ZM19.9375 50.3572C26.0472 50.3572 31 45.4043 31 39.2947H27C27 43.1952 23.838 46.3572 19.9375 46.3572V50.3572ZM49.125 13.7054C49.125 7.59574 44.1722 2.64289 38.0625 2.64289V6.64289C41.963 6.64289 45.125 9.80488 45.125 13.7054H49.125ZM8.875 39.2947C8.875 45.4043 13.8278 50.3572 19.9375 50.3572V46.3572C16.037 46.3572 12.875 43.1952 12.875 39.2947H8.875Z" fill="#2D9CDB"/>
<path d="M17.8956 11.9286L3.85438 11.9286C2.42897 11.9286 1.71331 10.2068 2.71875 9.19643L8.74847 3.137C9.92123 1.95847 11.8288 1.95847 13.0015 3.137L19.0313 9.19643C20.0367 10.2068 19.321 11.9286 17.8956 11.9286Z" stroke="#2D9CDB" stroke-width="4" stroke-linecap="round" stroke-linejoin="round"/>
<path d="M40.1044 41.0714L54.1456 41.0714C55.571 41.0714 56.2867 42.7932 55.2813 43.8036L49.2515 49.863C48.0788 51.0415 46.1712 51.0415 44.9985 49.863L38.9687 43.8036C37.9633 42.7932 38.679 41.0714 40.1044 41.0714Z" stroke="#2D9CDB" stroke-width="4" stroke-linecap="round" stroke-linejoin="round"/>
</svg>
