<svg width="64" height="64" viewBox="0 0 64 64" fill="none" xmlns="http://www.w3.org/2000/svg">
<path d="M45.3333 24.7467C46.3881 24.7467 47.4193 24.4339 48.2963 23.8479C49.1734 23.2618 49.857 22.4289 50.2607 21.4543C50.6643 20.4798 50.7699 19.4074 50.5641 18.3729C50.3584 17.3383 49.8504 16.388 49.1045 15.6421C48.3586 14.8962 47.4083 14.3883 46.3738 14.1825C45.3392 13.9767 44.2669 14.0823 43.2923 14.486C42.3178 14.8897 41.4848 15.5732 40.8988 16.4503C40.3128 17.3274 40 18.3585 40 19.4134C40 20.8278 40.5619 22.1844 41.5621 23.1846C42.5623 24.1848 43.9188 24.7467 45.3333 24.7467ZM7.22662 37.12C7.75503 37.2889 8.26444 37.5124 8.74662 37.7867C10.4051 38.7569 12.2919 39.2682 14.2133 39.2682C16.1347 39.2682 18.0215 38.7569 19.68 37.7867C20.7228 37.2028 21.8981 36.8961 23.0933 36.8961C24.2885 36.8961 25.4637 37.2028 26.5066 37.7867L27.0666 38.0534C28.6848 38.8411 30.471 39.2213 32.2697 39.1609C34.0683 39.1005 35.825 38.6013 37.3866 37.7067C38.4295 37.1228 39.6047 36.8161 40.8 36.8161C41.9952 36.8161 43.1704 37.1228 44.2133 37.7067C45.9033 38.6725 47.8135 39.1868 49.76 39.2C51.6382 39.1805 53.478 38.6654 55.0933 37.7067C55.5755 37.4324 56.0849 37.2089 56.6133 37.04C57.0074 37.0129 57.3906 36.8985 57.7351 36.7052C58.0797 36.5118 58.3769 36.2444 58.6055 35.9221C58.834 35.5998 58.988 35.2308 59.0565 34.8417C59.1249 34.4526 59.1061 34.0532 59.0013 33.6722C58.8965 33.2913 58.7084 32.9385 58.4505 32.6391C58.1926 32.3398 57.8715 32.1015 57.5103 31.9415C57.1491 31.7815 56.7568 31.7037 56.3619 31.7139C55.9669 31.724 55.5792 31.8217 55.2266 32C54.2961 32.2888 53.4015 32.6824 52.56 33.1733C51.7086 33.6649 50.743 33.9236 49.76 33.9236C48.777 33.9236 47.8113 33.6649 46.96 33.1733C45.1127 32.1312 43.0276 31.5837 40.9066 31.5837C38.7856 31.5837 36.7006 32.1312 34.8533 33.1733C34.6024 33.296 34.3441 33.4029 34.08 33.4934L38.24 29.3334C38.3353 29.2098 38.4158 29.0756 38.48 28.9334C38.6006 28.8022 38.7078 28.6592 38.8 28.5067C38.8124 28.338 38.8124 28.1687 38.8 28C38.8151 27.8315 38.8151 27.6619 38.8 27.4934C38.8127 27.3336 38.8127 27.1731 38.8 27.0134C38.8151 26.8448 38.8151 26.6752 38.8 26.5067C38.721 26.3499 38.632 26.1985 38.5333 26.0534C38.4641 25.8997 38.3744 25.7562 38.2666 25.6267L30.08 16.7467C29.8646 16.5119 29.6124 16.3137 29.3333 16.16C29.1474 16.1354 28.9591 16.1354 28.7733 16.16C28.6232 16.1356 28.4701 16.1356 28.32 16.16C27.965 16.0172 27.5807 15.9623 27.2 16L17.76 19.52C17.0953 19.7607 16.5535 20.2555 16.2534 20.8955C15.9534 21.5355 15.9198 22.2685 16.16 22.9334C16.4007 23.598 16.8954 24.1399 17.5354 24.4399C18.1755 24.7399 18.9085 24.7735 19.5733 24.5334L27.3866 21.68L32.72 27.3334L27.6533 32.4C25.9557 31.7401 24.1329 31.4648 22.3161 31.5939C20.4994 31.723 18.7338 32.2533 17.1466 33.1467C16.2953 33.6382 15.3296 33.8969 14.3466 33.8969C13.3636 33.8969 12.3979 33.6382 11.5466 33.1467C10.7051 32.6558 9.81044 32.2621 8.87995 31.9734C8.53875 31.846 8.1751 31.79 7.8114 31.8086C7.4477 31.8272 7.09168 31.9202 6.76527 32.0816C6.43886 32.2431 6.14898 32.4698 5.91352 32.7476C5.67805 33.0254 5.50198 33.3485 5.39617 33.6969C5.29035 34.0454 5.25703 34.4119 5.29826 34.7737C5.33949 35.1355 5.45439 35.4851 5.63589 35.8008C5.81739 36.1165 6.06163 36.3917 6.35356 36.6094C6.64549 36.8272 6.97891 36.9828 7.33329 37.0667L7.22662 37.12ZM55.2266 45.36C54.2961 45.6488 53.4015 46.0424 52.56 46.5334C51.7086 47.0249 50.743 47.2836 49.76 47.2836C48.777 47.2836 47.8113 47.0249 46.96 46.5334C45.1127 45.4912 43.0276 44.9437 40.9066 44.9437C38.7856 44.9437 36.7006 45.4912 34.8533 46.5334C33.9948 47.0322 33.0195 47.2949 32.0266 47.2949C31.0337 47.2949 30.0585 47.0322 29.2 46.5334C27.3527 45.4912 25.2676 44.9437 23.1466 44.9437C21.0256 44.9437 18.9406 45.4912 17.0933 46.5334C16.242 47.0249 15.2763 47.2836 14.2933 47.2836C13.3103 47.2836 12.3446 47.0249 11.4933 46.5334C10.6517 46.0424 9.75711 45.6488 8.82662 45.36C8.48542 45.2327 8.12176 45.1766 7.75807 45.1953C7.39437 45.2139 7.03834 45.3068 6.71193 45.4683C6.38552 45.6298 6.09565 45.8564 5.86018 46.1343C5.62472 46.4121 5.44865 46.7352 5.34284 47.0836C5.23702 47.4321 5.2037 47.7985 5.24493 48.1604C5.28616 48.5222 5.40106 48.8717 5.58256 49.1875C5.76405 49.5032 6.0083 49.7784 6.30022 49.9961C6.59215 50.2138 6.92558 50.3694 7.27995 50.4534C7.80836 50.6223 8.31777 50.8457 8.79995 51.12C10.4584 52.0902 12.3452 52.6015 14.2666 52.6015C16.188 52.6015 18.0748 52.0902 19.7333 51.12C20.7762 50.5361 21.9514 50.2295 23.1466 50.2295C24.3418 50.2295 25.5171 50.5361 26.56 51.12C28.2328 52.0765 30.1263 52.5797 32.0533 52.5797C33.9803 52.5797 35.8738 52.0765 37.5466 51.12C38.5895 50.5361 39.7647 50.2295 40.96 50.2295C42.1552 50.2295 43.3304 50.5361 44.3733 51.12C46.0633 52.0859 47.9735 52.6002 49.92 52.6133C51.7982 52.5938 53.638 52.0787 55.2533 51.12C55.7355 50.8457 56.2449 50.6223 56.7733 50.4534C57.1095 50.3518 57.4224 50.185 57.6941 49.9625C57.9658 49.7401 58.1911 49.4662 58.357 49.1567C58.5229 48.8472 58.6262 48.508 58.661 48.1586C58.6959 47.8091 58.6615 47.4562 58.56 47.12C58.4584 46.7838 58.2916 46.4709 58.0691 46.1992C57.8467 45.9275 57.5729 45.7022 57.2633 45.5363C56.9538 45.3704 56.6146 45.2671 56.2652 45.2323C55.9157 45.1975 55.5628 45.2318 55.2266 45.3334V45.36Z" fill="#2D9CDB"/>
</svg>
