<svg width="55" height="55" viewBox="0 0 55 55" fill="none" xmlns="http://www.w3.org/2000/svg">
<path d="M52.6875 22.3C51.9264 21.3864 50.9742 20.6509 49.8978 20.1455C48.8215 19.6401 47.6474 19.3771 46.4583 19.375H34.1083L35.625 15.5021C36.2558 13.8064 36.4659 11.9829 36.2372 10.1881C36.0085 8.39337 35.3479 6.68086 34.3119 5.19751C33.276 3.71417 31.8957 2.50426 30.2894 1.67157C28.6831 0.838887 26.8988 0.408279 25.0895 0.416686C24.5686 0.417773 24.059 0.569098 23.6218 0.852518C23.1847 1.13594 22.8386 1.53942 22.625 2.0146L14.9062 19.375H8.54163C6.38674 19.375 4.32012 20.231 2.79638 21.7548C1.27265 23.2785 0.416626 25.3451 0.416626 27.5V46.4583C0.416626 48.6132 1.27265 50.6799 2.79638 52.2036C4.32012 53.7273 6.38674 54.5833 8.54163 54.5833H43.0187C44.9194 54.5827 46.7598 53.9157 48.2196 52.6984C49.6794 51.4811 50.6662 49.7905 51.0083 47.9209L54.4479 28.9625C54.6606 27.7908 54.6132 26.5867 54.309 25.4354C54.0048 24.2841 53.4512 23.2137 52.6875 22.3ZM13.9583 49.1667H8.54163C7.82333 49.1667 7.13446 48.8813 6.62655 48.3734C6.11864 47.8655 5.83329 47.1766 5.83329 46.4583V27.5C5.83329 26.7817 6.11864 26.0928 6.62655 25.5849C7.13446 25.077 7.82333 24.7917 8.54163 24.7917H13.9583V49.1667ZM49.1666 27.9875L45.727 46.9459C45.6117 47.5768 45.2761 48.1463 44.7802 48.553C44.2842 48.9597 43.66 49.1771 43.0187 49.1667H19.375V22.6521L26.7416 6.0771C27.4999 6.29817 28.2041 6.67404 28.8099 7.18097C29.4156 7.68791 29.9096 8.31491 30.2608 9.0224C30.612 9.72988 30.8127 10.5025 30.8503 11.2915C30.8879 12.0804 30.7615 12.8686 30.4791 13.6063L29.0437 17.4792C28.7379 18.2978 28.6346 19.1783 28.7427 20.0454C28.8509 20.9126 29.1673 21.7407 29.6648 22.4591C30.1624 23.1775 30.8264 23.7649 31.6001 24.171C32.3739 24.5772 33.2344 24.7902 34.1083 24.7917H46.4583C46.8562 24.791 47.2493 24.8781 47.6098 25.0466C47.9702 25.2151 48.2891 25.461 48.5437 25.7667C48.8046 26.0682 48.9957 26.4236 49.1034 26.8075C49.2111 27.1914 49.2327 27.5943 49.1666 27.9875Z" fill="#2D9CDB"/>
</svg>
