<svg width="55" height="57" viewBox="0 0 55 57" fill="none" xmlns="http://www.w3.org/2000/svg">
<path d="M1.77089 19.9958L26.1459 34.0792C26.5576 34.3169 27.0246 34.442 27.5001 34.442C27.9755 34.442 28.4425 34.3169 28.8542 34.0792L53.2292 19.9958C53.6386 19.7595 53.9789 19.4202 54.2165 19.0116C54.454 18.603 54.5805 18.1393 54.5834 17.6667C54.5853 17.1894 54.461 16.7202 54.2232 16.3064C53.9854 15.8926 53.6425 15.549 53.2292 15.3104L28.8542 1.25418C28.4425 1.01647 27.9755 0.891327 27.5001 0.891327C27.0246 0.891327 26.5576 1.01647 26.1459 1.25418L1.77089 15.3104C1.35759 15.549 1.01467 15.8926 0.776873 16.3064C0.539073 16.7202 0.414829 17.1894 0.416724 17.6667C0.419577 18.1393 0.546071 18.603 0.783634 19.0116C1.0212 19.4202 1.36156 19.7595 1.77089 19.9958ZM27.5001 6.83334L46.4584 17.6667L27.5001 28.5L8.54172 17.6667L27.5001 6.83334ZM50.5209 26.2521L27.5001 39.3333L4.47922 26.1438C4.17011 25.9647 3.82863 25.8485 3.47443 25.802C3.12024 25.7555 2.76034 25.7795 2.41546 25.8726C2.07058 25.9657 1.74754 26.1262 1.46493 26.3447C1.18233 26.5632 0.945743 26.8355 0.768807 27.1458C0.415715 27.7677 0.322911 28.504 0.510644 29.1941C0.698377 29.8841 1.15141 30.4719 1.77089 30.8292L26.1459 44.9125C26.5576 45.1502 27.0246 45.2754 27.5001 45.2754C27.9755 45.2754 28.4425 45.1502 28.8542 44.9125L53.2292 30.8292C53.8487 30.4719 54.3017 29.8841 54.4895 29.1941C54.6772 28.504 54.5844 27.7677 54.2313 27.1458C54.0544 26.8355 53.8178 26.5632 53.5352 26.3447C53.2526 26.1262 52.9295 25.9657 52.5846 25.8726C52.2398 25.7795 51.8799 25.7555 51.5257 25.802C51.1715 25.8485 50.83 25.9647 50.5209 26.1438V26.2521ZM50.5209 37.0854L27.5001 50.1667L4.47922 36.9771C4.17011 36.798 3.82863 36.6819 3.47443 36.6353C3.12024 36.5888 2.76034 36.6128 2.41546 36.7059C2.07058 36.7991 1.74754 36.9595 1.46493 37.178C1.18233 37.3966 0.945743 37.6688 0.768807 37.9792C0.415715 38.6011 0.322911 39.3373 0.510644 40.0274C0.698377 40.7174 1.15141 41.3052 1.77089 41.6625L26.1459 55.7458C26.5576 55.9836 27.0246 56.1087 27.5001 56.1087C27.9755 56.1087 28.4425 55.9836 28.8542 55.7458L53.2292 41.6625C53.8487 41.3052 54.3017 40.7174 54.4895 40.0274C54.6772 39.3373 54.5844 38.6011 54.2313 37.9792C54.0544 37.6688 53.8178 37.3966 53.5352 37.178C53.2526 36.9595 52.9295 36.7991 52.5846 36.7059C52.2398 36.6128 51.8799 36.5888 51.5257 36.6353C51.1715 36.6819 50.83 36.798 50.5209 36.9771V37.0854Z" fill="#2D9CDB"/>
</svg>
