<svg width="92" height="90" viewBox="0 0 92 90" fill="none" xmlns="http://www.w3.org/2000/svg">
<path fill-rule="evenodd" clip-rule="evenodd" d="M45.733 40.9117L50.8762 51.4513L58.625 56.7441V66.6546H55.3567C54.207 63.3218 51.1048 60.9339 47.4583 60.9339C43.8118 60.9339 40.7096 63.3218 39.5598 66.6546H27.4401C26.2904 63.3218 23.1882 60.9339 19.5416 60.9339C15.8951 60.9339 12.7929 63.3218 11.6432 66.6546H8.37496V40.9117H45.733ZM58.625 72.3752H55.3567C54.207 75.708 51.1048 78.0958 47.4583 78.0958C43.8118 78.0958 40.7096 75.708 39.5598 72.3752H27.4401C26.2904 75.708 23.1882 78.0958 19.5416 78.0958C15.8951 78.0958 12.7929 75.708 11.6432 72.3752H8.37496C5.29137 72.3752 2.79163 69.814 2.79163 66.6546V40.9117C2.79163 37.7523 5.29137 35.1911 8.37496 35.1911H45.733C47.8478 35.1911 49.7811 36.4153 50.7268 38.3534L55.207 47.5341L64.2083 53.6825V66.6546C64.2083 69.814 61.7086 72.3752 58.625 72.3752ZM22.3333 69.5149C22.3333 71.0946 21.0834 72.3752 19.5416 72.3752C17.9998 72.3752 16.75 71.0946 16.75 69.5149C16.75 67.9352 17.9998 66.6546 19.5416 66.6546C21.0834 66.6546 22.3333 67.9352 22.3333 69.5149ZM50.25 69.5149C50.25 71.0946 49.0001 72.3752 47.4583 72.3752C45.9165 72.3752 44.6666 71.0946 44.6666 69.5149C44.6666 67.9352 45.9165 66.6546 47.4583 66.6546C49.0001 66.6546 50.25 67.9352 50.25 69.5149Z" fill="#2D9CDB"/>
<path fill-rule="evenodd" clip-rule="evenodd" d="M69.1249 30.5689L80.036 19.3894L83.6304 23.0723L69.1249 37.9346L59.7026 28.2807L63.2971 24.5978L69.1249 30.5689Z" fill="#2D9CDB"/>
</svg>
