<?xml version="1.0" encoding="utf-8"?><svg viewBox="0 0 69 66" xmlns="http://www.w3.org/2000/svg" xmlns:xlink="http://www.w3.org/1999/xlink"><style>:root>svg{display:none}:root>svg:target{display:block}</style><svg fill="none" viewBox="0 0 15 8" id="arrow-drop" xmlns="http://www.w3.org/2000/svg"><path d="M1 1l6.5 5.2L14 1" stroke="#fff" stroke-width="2"/></svg><svg fill="none" viewBox="0 0 22 20" id="ic-email" xmlns="http://www.w3.org/2000/svg"><path fill-rule="evenodd" clip-rule="evenodd" d="M2 .811h18c1.105 0 2 .95 2 2.121v14.846c0 1.17-.895 2.12-2 2.12H2c-1.105 0-2-.95-2-2.12V2.931C0 1.761.895.812 2 .812zM2 7.83v9.948h18V7.83L11 12.6 2 7.83zm0-2.371l9 4.772 9-4.772V2.932H2v2.526z" fill="#fff"/></svg><svg fill="none" viewBox="0 0 22 22" id="ic-home" xmlns="http://www.w3.org/2000/svg"><path fill-rule="evenodd" clip-rule="evenodd" d="M4.889 9.234L10.89 2.87l6.001 6.364h-.001v10.604h-12V9.234h-.001zm-1.999 2.12l-1.477 1.565L0 11.421 9.477 1.37a1.919 1.919 0 012.826 0l9.477 10.05-1.413 1.498-1.477-1.566v8.485c0 1.171-.895 2.12-2 2.12h-12c-1.105 0-2-.949-2-2.12v-8.485z" fill="#fff"/></svg><svg fill="none" viewBox="0 0 25 24" id="ic-insta" xmlns="http://www.w3.org/2000/svg"><g opacity=".9"><path opacity=".9" d="M17.34 23.958H8c-4.14 0-7.513-3.393-7.513-7.56v-8.28c0-4.166 3.373-7.56 7.513-7.56h9.339c4.14 0 7.513 3.394 7.513 7.56v8.28c0 4.167-3.372 7.56-7.513 7.56zM8 2.234c-3.223 0-5.848 2.641-5.848 5.885v8.28c0 3.242 2.625 5.884 5.848 5.884h9.339c3.223 0 5.848-2.642 5.848-5.885v-8.28c0-3.243-2.625-5.884-5.848-5.884H8z" fill="#fff"/><path opacity=".9" d="M12.676 18.986c-3.693 0-6.692-3.017-6.692-6.733 0-3.716 3-6.733 6.692-6.733 3.693 0 6.691 3.017 6.691 6.733-.01 3.716-3.01 6.733-6.691 6.733zm0-11.78c-2.764 0-5.016 2.266-5.016 5.047 0 2.781 2.252 5.047 5.016 5.047 2.764 0 5.016-2.266 5.016-5.047 0-2.781-2.252-5.047-5.016-5.047zM20.648 5.735c0 .773-.619 1.396-1.387 1.396a1.389 1.389 0 01-1.388-1.396c0-.774.62-1.397 1.388-1.397.768 0 1.387.623 1.387 1.397z" fill="#fff"/></g></svg><svg fill="none" viewBox="0 0 21 22" id="ic-tel" xmlns="http://www.w3.org/2000/svg"><path fill-rule="evenodd" clip-rule="evenodd" d="M9.857 7.472c.518-.74.704-1.521.118-2.21-1.315-1.95-2.2-3.157-2.754-3.738C6.166.419 4.43.568 3.518 1.523c-.49.512-.657.688-1.16 1.23-2.806 2.977-1.095 9.27 3.454 14.098 4.547 4.827 10.48 6.642 13.292 3.659.465-.475.859-.893 1.169-1.24.895-1.004 1.03-2.762-.006-3.904-.532-.586-1.617-1.479-3.534-2.933-.587-.557-1.284-.436-1.922.008-.307.214-.53.43-.952.878l-.767.813c-.1.107-1.47-.621-2.801-2.033-1.331-1.413-2.017-2.866-1.917-2.972l.767-.814a15.4 15.4 0 00.28-.302c.171-.19.313-.364.436-.54zm4.649 8.16l.766-.814a7.04 7.04 0 01.505-.502c1.68 1.279 2.653 2.083 3.05 2.52.239.264.202.743-.006.976-.287.321-.66.717-1.117 1.185-1.818 1.928-6.608.463-10.479-3.646-3.872-4.11-5.253-9.19-3.449-11.103.502-.54.66-.71 1.144-1.214.182-.19.676-.232.896-.001.427.447 1.22 1.523 2.385 3.244-.06.08-.136.17-.228.271a13.78 13.78 0 01-.245.266l-.767.812c-1.303 1.382-.193 3.734 1.916 5.972 2.108 2.237 4.326 3.415 5.629 2.033zM12.656.824c4.322.556 7.75 4.19 8.274 8.775l-1.975.349c-.381-3.693-3.147-6.625-6.63-7.03l.33-2.094zm-.66 4.19c2.642.251 4.746 2.482 4.982 5.283l-1.982.35c-.084-1.91-1.529-3.441-3.33-3.53l.33-2.102z" fill="#fff"/></svg><svg fill="none" viewBox="0 0 69 66" id="ic-tel_for-table" xmlns="http://www.w3.org/2000/svg"><path clip-rule="evenodd" d="M4.091 9.839c1.068-1.706 6.953-7.897 11.148-7.71 1.254.104 2.363.831 3.265 1.679h.003c2.066 1.95 7.993 9.305 8.326 10.854.822 3.798-3.882 5.987-2.444 9.815 3.668 8.641 9.987 14.726 18.964 18.254 3.973 1.388 6.246-3.138 10.191-2.35 1.608.324 9.252 6.028 11.272 8.02v0c.877.865 1.64 1.936 1.744 3.144.156 4.255-6.673 10-8.004 10.734-3.14 2.166-7.237 2.126-12.232-.11-13.938-5.584-36.212-26.627-42.119-40.555-2.26-4.783-2.412-8.755-.114-11.775z" stroke="#fff" stroke-width="4" stroke-linecap="round" stroke-linejoin="round"/><path d="M43.158 2.938c12.495 1.335 22.36 10.825 23.764 22.854M43.158 14.452c5.974 1.121 10.642 5.616 11.806 11.369" stroke="#fff" stroke-width="4" stroke-linecap="round" stroke-linejoin="round"/></svg><svg fill="none" viewBox="0 0 27 23" id="ic-telegram" xmlns="http://www.w3.org/2000/svg"><path d="M.408 10.698c2.762-1.564 5.845-2.87 8.726-4.183 4.957-2.15 9.933-4.264 14.959-6.23.978-.336 2.735-.664 2.907.827-.094 2.11-.483 4.207-.749 6.305-.675 4.613-1.456 9.21-2.218 13.807-.262 1.532-2.127 2.325-3.32 1.345-2.869-1.993-5.76-3.966-8.59-6.005-.928-.97-.068-2.362.76-3.054 2.363-2.394 4.868-4.429 7.107-6.947.604-1.5-1.18-.236-1.77.152-3.233 2.292-6.388 4.724-9.798 6.739-1.741.986-3.771.143-5.512-.407-1.56-.665-3.848-1.335-2.502-2.348z" fill="#fff"/></svg><svg fill="none" viewBox="0 0 22 21" id="ic-time" xmlns="http://www.w3.org/2000/svg"><path fill-rule="evenodd" clip-rule="evenodd" d="M3.793.294l1.414 1.414-3.5 3.5L.293 3.794l3.5-3.5zm14.414 0l-1.414 1.414 3.5 3.5 1.414-1.414-3.5-3.5zM11 21C5.477 21 1 16.523 1 11S5.477 1 11 1s10 4.477 10 10-4.477 10-10 10zm0-2a8 8 0 100-16 8 8 0 000 16zm3.293-11.707L10 11.586 7.707 9.293l-1.414 1.414L10 14.414l5.707-5.707-1.414-1.414z" fill="#fff"/></svg><svg fill="none" viewBox="0 0 22 26" id="ic-viber" xmlns="http://www.w3.org/2000/svg"><path d="M8.65 13.243c.361.365 1.094 1.053 1.595 1.174.5.12.871-.157 1.265-.49a1.27 1.27 0 01.793-.463c.519-.097 1.974.87 2.317 1.285 1.062 1.253.112 2.658-1.325 2.774-1.776.148-4.14-1.46-5.809-3.125-1.668-1.664-3.277-4.021-3.129-5.791.12-1.433 1.53-2.38 2.782-1.322.417.346 1.39 1.798 1.288 2.31-.05.313-.215.595-.463.791-.334.393-.617.763-.492 1.262.126.5.812 1.234 1.178 1.595zM13.443 11.5a.464.464 0 01-.348-.342 3.108 3.108 0 00-2.433-2.505.464.464 0 01-.334-.402.254.254 0 01.324-.25 4.017 4.017 0 012.034 1.125 3.998 3.998 0 011.067 2.06.248.248 0 01-.26.319l-.05-.005zM15.44 11.851a.463.463 0 01-.352-.365c-.329-2.616-1.905-4.312-4.56-4.904a.464.464 0 01-.335-.397.25.25 0 01.325-.25c2.994.666 4.849 2.662 5.243 5.62a.249.249 0 01-.283.296h-.037z" fill="#fff"/><path d="M17.35 12.152a.464.464 0 01-.352-.351c-.718-4.28-2.698-6.411-6.62-7.128a.464.464 0 01-.347-.388.248.248 0 01.191-.27.25.25 0 01.12.002c4.274.78 6.527 3.198 7.305 7.825a.244.244 0 01-.149.296.246.246 0 01-.12.014h-.027z" fill="#fff"/><path d="M16.011 0H5.989a6.002 6.002 0 00-4.233 1.75A5.968 5.968 0 000 5.972v9.993a5.962 5.962 0 001.418 3.85 5.993 5.993 0 003.574 2.03l2.18 3.92a.463.463 0 00.82 0l1.9-3.81h6.119a6.015 6.015 0 004.239-1.758A5.983 5.983 0 0022 15.965V5.972a5.968 5.968 0 00-1.756-4.222A6.002 6.002 0 0016.011 0zm4.872 15.965a4.855 4.855 0 01-1.428 3.434 4.883 4.883 0 01-3.444 1.424H8.659l-.83 1.983a.463.463 0 01-.857 0l-.811-1.978h-.172a4.888 4.888 0 01-3.448-1.424 4.855 4.855 0 01-1.428-3.439V5.972a4.86 4.86 0 011.43-3.437 4.888 4.888 0 013.446-1.426h10.022a4.884 4.884 0 013.445 1.426 4.855 4.855 0 011.427 3.437v9.993z" fill="#fff"/></svg><svg fill="none" viewBox="0 0 25 25" id="ic-wp" xmlns="http://www.w3.org/2000/svg"><g opacity=".9" fill="#fff"><path opacity=".9" d="M12.518 24.517c-2.134 0-4.226-.57-6.072-1.643l-4.75 1.643.972-5.058A12.17 12.17 0 01.33 12.264C.34 5.498 5.805 0 12.518 0c6.724 0 12.188 5.498 12.188 12.253 0 6.765-5.464 12.264-12.188 12.264zM6.67 20.866l.363.236a10.3 10.3 0 005.485 1.6c5.72 0 10.374-4.682 10.374-10.438S18.239 1.836 12.518 1.836c-5.72 0-10.362 4.682-10.362 10.428 0 2.34.757 4.553 2.198 6.41l.256.323-.533 2.76 2.593-.891z"/><path d="M6.371 7.55s.715-1.257 1.302-1.332c.587-.075 1.334-.075 1.537.311.203.387 1.11 2.61 1.11 2.61s.15.386-.085.751c-.235.376-.769.913-.769.913s-.299.387 0 .795c.299.408.758 1.16 1.718 2.115.95.956 2.786 1.644 2.786 1.644s.267.032.427-.13c.17-.171 1.067-1.31 1.067-1.31s.288-.375.768-.15c.48.226 2.572 1.267 2.572 1.267s.246.086.246.462-.15 1.278-.46 1.59c-.309.31-1.194 1.256-2.54 1.256-1.344 0-4.535-1.095-6.232-2.814-1.697-1.707-3.212-3.447-3.564-5.025-.363-1.59-.32-2.31.117-2.954z"/></g></svg></svg>