<?xml version="1.0" encoding="utf-8"?><svg viewBox="0 0 166 165" xmlns="http://www.w3.org/2000/svg" xmlns:xlink="http://www.w3.org/1999/xlink"><style>:root>svg{display:none}:root>svg:target{display:block}</style><svg fill="none" viewBox="0 0 49 49" id="accordion-btn" xmlns="http://www.w3.org/2000/svg"><circle cx="24.5" cy="24.5" r="22.5" fill="#fff" stroke="#2290B9" stroke-width="4" stroke-linecap="round" stroke-linejoin="round"/><path d="M16 23l6.958 6.549a2.25 2.25 0 003.084 0L33 23" stroke="#2290B9" stroke-width="4" stroke-linecap="round" stroke-linejoin="round"/></svg><svg fill="none" viewBox="0 0 15 8" id="arrow-drop" xmlns="http://www.w3.org/2000/svg"><path d="M1 1l6.5 5.2L14 1" stroke="#fff" stroke-width="2"/></svg><svg viewBox="0 0 29 18" id="btn-arr" xmlns="http://www.w3.org/2000/svg"><path d="M1.594 10.523H22.64l-4.623 4.624c-.638.637-.638 1.594 0 2.232.637.638 1.594.638 2.232 0l7.334-7.334c.638-.638.638-1.595 0-2.232L20.249.478c-.638-.637-1.595-.637-2.232 0-.638.638-.638 1.595 0 2.232l4.623 4.624H1.594C.797 7.334 0 7.972 0 8.93c0 .956.797 1.594 1.594 1.594z" fill="inherit"/></svg><svg fill="none" viewBox="0 0 22 20" id="ic-email" xmlns="http://www.w3.org/2000/svg"><path fill-rule="evenodd" clip-rule="evenodd" d="M2 .811h18c1.105 0 2 .95 2 2.121v14.846c0 1.17-.895 2.12-2 2.12H2c-1.105 0-2-.95-2-2.12V2.931C0 1.761.895.812 2 .812zM2 7.83v9.948h18V7.83L11 12.6 2 7.83zm0-2.371l9 4.772 9-4.772V2.932H2v2.526z" fill="#fff"/></svg><svg fill="none" viewBox="0 0 22 22" id="ic-home" xmlns="http://www.w3.org/2000/svg"><path fill-rule="evenodd" clip-rule="evenodd" d="M4.889 9.234L10.89 2.87l6.001 6.364h-.001v10.604h-12V9.234h-.001zm-1.999 2.12l-1.477 1.565L0 11.421 9.477 1.37a1.919 1.919 0 012.826 0l9.477 10.05-1.413 1.498-1.477-1.566v8.485c0 1.171-.895 2.12-2 2.12h-12c-1.105 0-2-.949-2-2.12v-8.485z" fill="#fff"/></svg><svg fill="none" viewBox="0 0 25 24" id="ic-insta" xmlns="http://www.w3.org/2000/svg"><g opacity=".9"><path opacity=".9" d="M17.34 23.958H8c-4.14 0-7.513-3.393-7.513-7.56v-8.28c0-4.166 3.373-7.56 7.513-7.56h9.339c4.14 0 7.513 3.394 7.513 7.56v8.28c0 4.167-3.372 7.56-7.513 7.56zM8 2.234c-3.223 0-5.848 2.641-5.848 5.885v8.28c0 3.242 2.625 5.884 5.848 5.884h9.339c3.223 0 5.848-2.642 5.848-5.885v-8.28c0-3.243-2.625-5.884-5.848-5.884H8z" fill="#fff"/><path opacity=".9" d="M12.676 18.986c-3.693 0-6.692-3.017-6.692-6.733 0-3.716 3-6.733 6.692-6.733 3.693 0 6.691 3.017 6.691 6.733-.01 3.716-3.01 6.733-6.691 6.733zm0-11.78c-2.764 0-5.016 2.266-5.016 5.047 0 2.781 2.252 5.047 5.016 5.047 2.764 0 5.016-2.266 5.016-5.047 0-2.781-2.252-5.047-5.016-5.047zM20.648 5.735c0 .773-.619 1.396-1.387 1.396a1.389 1.389 0 01-1.388-1.396c0-.774.62-1.397 1.388-1.397.768 0 1.387.623 1.387 1.397z" fill="#fff"/></g></svg><svg fill="none" viewBox="0 0 21 22" id="ic-tel" xmlns="http://www.w3.org/2000/svg"><path fill-rule="evenodd" clip-rule="evenodd" d="M9.857 7.472c.518-.74.704-1.521.118-2.21-1.315-1.95-2.2-3.157-2.754-3.738C6.166.419 4.43.568 3.518 1.523c-.49.512-.657.688-1.16 1.23-2.806 2.977-1.095 9.27 3.454 14.098 4.547 4.827 10.48 6.642 13.292 3.659.465-.475.859-.893 1.169-1.24.895-1.004 1.03-2.762-.006-3.904-.532-.586-1.617-1.479-3.534-2.933-.587-.557-1.284-.436-1.922.008-.307.214-.53.43-.952.878l-.767.813c-.1.107-1.47-.621-2.801-2.033-1.331-1.413-2.017-2.866-1.917-2.972l.767-.814a15.4 15.4 0 00.28-.302c.171-.19.313-.364.436-.54zm4.649 8.16l.766-.814a7.04 7.04 0 01.505-.502c1.68 1.279 2.653 2.083 3.05 2.52.239.264.202.743-.006.976-.287.321-.66.717-1.117 1.185-1.818 1.928-6.608.463-10.479-3.646-3.872-4.11-5.253-9.19-3.449-11.103.502-.54.66-.71 1.144-1.214.182-.19.676-.232.896-.001.427.447 1.22 1.523 2.385 3.244-.06.08-.136.17-.228.271a13.78 13.78 0 01-.245.266l-.767.812c-1.303 1.382-.193 3.734 1.916 5.972 2.108 2.237 4.326 3.415 5.629 2.033zM12.656.824c4.322.556 7.75 4.19 8.274 8.775l-1.975.349c-.381-3.693-3.147-6.625-6.63-7.03l.33-2.094zm-.66 4.19c2.642.251 4.746 2.482 4.982 5.283l-1.982.35c-.084-1.91-1.529-3.441-3.33-3.53l.33-2.102z" fill="#fff"/></svg><svg fill="none" viewBox="0 0 69 66" id="ic-tel_for-table" xmlns="http://www.w3.org/2000/svg"><path clip-rule="evenodd" d="M4.091 9.839c1.068-1.706 6.953-7.897 11.148-7.71 1.254.104 2.363.831 3.265 1.679h.003c2.066 1.95 7.993 9.305 8.326 10.854.822 3.798-3.882 5.987-2.444 9.815 3.668 8.641 9.987 14.726 18.964 18.254 3.973 1.388 6.246-3.138 10.191-2.35 1.608.324 9.252 6.028 11.272 8.02v0c.877.865 1.64 1.936 1.744 3.144.156 4.255-6.673 10-8.004 10.734-3.14 2.166-7.237 2.126-12.232-.11-13.938-5.584-36.212-26.627-42.119-40.555-2.26-4.783-2.412-8.755-.114-11.775z" stroke="#fff" stroke-width="4" stroke-linecap="round" stroke-linejoin="round"/><path d="M43.158 2.938c12.495 1.335 22.36 10.825 23.764 22.854M43.158 14.452c5.974 1.121 10.642 5.616 11.806 11.369" stroke="#fff" stroke-width="4" stroke-linecap="round" stroke-linejoin="round"/></svg><svg fill="none" viewBox="0 0 27 23" id="ic-telegram" xmlns="http://www.w3.org/2000/svg"><path d="M.408 10.698c2.762-1.564 5.845-2.87 8.726-4.183 4.957-2.15 9.933-4.264 14.959-6.23.978-.336 2.735-.664 2.907.827-.094 2.11-.483 4.207-.749 6.305-.675 4.613-1.456 9.21-2.218 13.807-.262 1.532-2.127 2.325-3.32 1.345-2.869-1.993-5.76-3.966-8.59-6.005-.928-.97-.068-2.362.76-3.054 2.363-2.394 4.868-4.429 7.107-6.947.604-1.5-1.18-.236-1.77.152-3.233 2.292-6.388 4.724-9.798 6.739-1.741.986-3.771.143-5.512-.407-1.56-.665-3.848-1.335-2.502-2.348z" fill="#fff"/></svg><svg fill="none" viewBox="0 0 22 21" id="ic-time" xmlns="http://www.w3.org/2000/svg"><path fill-rule="evenodd" clip-rule="evenodd" d="M3.793.294l1.414 1.414-3.5 3.5L.293 3.794l3.5-3.5zm14.414 0l-1.414 1.414 3.5 3.5 1.414-1.414-3.5-3.5zM11 21C5.477 21 1 16.523 1 11S5.477 1 11 1s10 4.477 10 10-4.477 10-10 10zm0-2a8 8 0 100-16 8 8 0 000 16zm3.293-11.707L10 11.586 7.707 9.293l-1.414 1.414L10 14.414l5.707-5.707-1.414-1.414z" fill="#fff"/></svg><svg fill="none" viewBox="0 0 22 26" id="ic-viber" xmlns="http://www.w3.org/2000/svg"><path d="M8.65 13.243c.361.365 1.094 1.053 1.595 1.174.5.12.871-.157 1.265-.49a1.27 1.27 0 01.793-.463c.519-.097 1.974.87 2.317 1.285 1.062 1.253.112 2.658-1.325 2.774-1.776.148-4.14-1.46-5.809-3.125-1.668-1.664-3.277-4.021-3.129-5.791.12-1.433 1.53-2.38 2.782-1.322.417.346 1.39 1.798 1.288 2.31-.05.313-.215.595-.463.791-.334.393-.617.763-.492 1.262.126.5.812 1.234 1.178 1.595zM13.443 11.5a.464.464 0 01-.348-.342 3.108 3.108 0 00-2.433-2.505.464.464 0 01-.334-.402.254.254 0 01.324-.25 4.017 4.017 0 012.034 1.125 3.998 3.998 0 011.067 2.06.248.248 0 01-.26.319l-.05-.005zM15.44 11.851a.463.463 0 01-.352-.365c-.329-2.616-1.905-4.312-4.56-4.904a.464.464 0 01-.335-.397.25.25 0 01.325-.25c2.994.666 4.849 2.662 5.243 5.62a.249.249 0 01-.283.296h-.037z" fill="#fff"/><path d="M17.35 12.152a.464.464 0 01-.352-.351c-.718-4.28-2.698-6.411-6.62-7.128a.464.464 0 01-.347-.388.248.248 0 01.191-.27.25.25 0 01.12.002c4.274.78 6.527 3.198 7.305 7.825a.244.244 0 01-.149.296.246.246 0 01-.12.014h-.027z" fill="#fff"/><path d="M16.011 0H5.989a6.002 6.002 0 00-4.233 1.75A5.968 5.968 0 000 5.972v9.993a5.962 5.962 0 001.418 3.85 5.993 5.993 0 003.574 2.03l2.18 3.92a.463.463 0 00.82 0l1.9-3.81h6.119a6.015 6.015 0 004.239-1.758A5.983 5.983 0 0022 15.965V5.972a5.968 5.968 0 00-1.756-4.222A6.002 6.002 0 0016.011 0zm4.872 15.965a4.855 4.855 0 01-1.428 3.434 4.883 4.883 0 01-3.444 1.424H8.659l-.83 1.983a.463.463 0 01-.857 0l-.811-1.978h-.172a4.888 4.888 0 01-3.448-1.424 4.855 4.855 0 01-1.428-3.439V5.972a4.86 4.86 0 011.43-3.437 4.888 4.888 0 013.446-1.426h10.022a4.884 4.884 0 013.445 1.426 4.855 4.855 0 011.427 3.437v9.993z" fill="#fff"/></svg><svg fill="none" viewBox="0 0 25 25" id="ic-wp" xmlns="http://www.w3.org/2000/svg"><g opacity=".9" fill="#fff"><path opacity=".9" d="M12.518 24.517c-2.134 0-4.226-.57-6.072-1.643l-4.75 1.643.972-5.058A12.17 12.17 0 01.33 12.264C.34 5.498 5.805 0 12.518 0c6.724 0 12.188 5.498 12.188 12.253 0 6.765-5.464 12.264-12.188 12.264zM6.67 20.866l.363.236a10.3 10.3 0 005.485 1.6c5.72 0 10.374-4.682 10.374-10.438S18.239 1.836 12.518 1.836c-5.72 0-10.362 4.682-10.362 10.428 0 2.34.757 4.553 2.198 6.41l.256.323-.533 2.76 2.593-.891z"/><path d="M6.371 7.55s.715-1.257 1.302-1.332c.587-.075 1.334-.075 1.537.311.203.387 1.11 2.61 1.11 2.61s.15.386-.085.751c-.235.376-.769.913-.769.913s-.299.387 0 .795c.299.408.758 1.16 1.718 2.115.95.956 2.786 1.644 2.786 1.644s.267.032.427-.13c.17-.171 1.067-1.31 1.067-1.31s.288-.375.768-.15c.48.226 2.572 1.267 2.572 1.267s.246.086.246.462-.15 1.278-.46 1.59c-.309.31-1.194 1.256-2.54 1.256-1.344 0-4.535-1.095-6.232-2.814-1.697-1.707-3.212-3.447-3.564-5.025-.363-1.59-.32-2.31.117-2.954z"/></g></svg><svg fill="none" viewBox="0 0 166 165" id="points-bg" xmlns="http://www.w3.org/2000/svg"><g opacity=".3"><mask id="ma" maskUnits="userSpaceOnUse" x="0" y="0" width="14" height="16"><path d="M6.575 15.67c3.63 0 6.574-3.319 6.574-7.414 0-4.094-2.943-7.414-6.574-7.414S0 4.162 0 8.256c0 4.095 2.944 7.415 6.575 7.415z" fill="url(#mpaint0_linear)"/></mask><g mask="url(#ma)"><path d="M6.575 15.67c3.63 0 6.574-3.319 6.574-7.414 0-4.094-2.943-7.414-6.574-7.414S0 4.162 0 8.256c0 4.095 2.944 7.415 6.575 7.415z" fill="url(#mpaint1_linear)"/></g><mask id="mb" maskUnits="userSpaceOnUse" x="38" y="0" width="14" height="16"><path d="M44.652 15.67c3.631 0 6.575-3.319 6.575-7.414 0-4.094-2.944-7.414-6.575-7.414-3.63 0-6.574 3.32-6.574 7.414 0 4.095 2.943 7.415 6.574 7.415z" fill="url(#mpaint2_linear)"/></mask><g mask="url(#mb)"><path d="M44.652 15.67c3.631 0 6.575-3.319 6.575-7.414 0-4.094-2.944-7.414-6.575-7.414-3.63 0-6.574 3.32-6.574 7.414 0 4.095 2.943 7.415 6.574 7.415z" fill="url(#mpaint3_linear)"/></g><mask id="mc" maskUnits="userSpaceOnUse" x="76" y="0" width="14" height="16"><path d="M82.73 15.67c3.63 0 6.574-3.319 6.574-7.414 0-4.094-2.943-7.414-6.574-7.414s-6.575 3.32-6.575 7.414c0 4.095 2.944 7.415 6.575 7.415z" fill="url(#mpaint4_linear)"/></mask><g mask="url(#mc)"><path d="M82.73 15.67c3.63 0 6.574-3.319 6.574-7.414 0-4.094-2.943-7.414-6.574-7.414s-6.575 3.32-6.575 7.414c0 4.095 2.944 7.415 6.575 7.415z" fill="url(#mpaint5_linear)"/></g><mask id="md" maskUnits="userSpaceOnUse" x="114" y="0" width="14" height="16"><path d="M120.808 15.67c3.631 0 6.575-3.319 6.575-7.414 0-4.094-2.944-7.414-6.575-7.414-3.631 0-6.575 3.32-6.575 7.414 0 4.095 2.944 7.415 6.575 7.415z" fill="url(#mpaint6_linear)"/></mask><g mask="url(#md)"><path d="M120.808 15.67c3.631 0 6.575-3.319 6.575-7.414 0-4.094-2.944-7.414-6.575-7.414-3.631 0-6.575 3.32-6.575 7.414 0 4.095 2.944 7.415 6.575 7.415z" fill="url(#mpaint7_linear)"/></g><mask id="me" maskUnits="userSpaceOnUse" x="152" y="0" width="14" height="16"><path d="M158.885 15.67c3.631 0 6.575-3.319 6.575-7.414 0-4.094-2.944-7.414-6.575-7.414-3.631 0-6.574 3.32-6.574 7.414 0 4.095 2.943 7.415 6.574 7.415z" fill="url(#mpaint8_linear)"/></mask><g mask="url(#me)"><path d="M158.885 15.67c3.631 0 6.575-3.319 6.575-7.414 0-4.094-2.944-7.414-6.575-7.414-3.631 0-6.574 3.32-6.574 7.414 0 4.095 2.943 7.415 6.574 7.415z" fill="url(#mpaint9_linear)"/></g><mask id="mf" maskUnits="userSpaceOnUse" x="0" y="38" width="14" height="15"><path d="M6.575 52.896c3.63 0 6.574-3.32 6.574-7.414 0-4.095-2.943-7.414-6.574-7.414S0 41.388 0 45.482c0 4.095 2.944 7.414 6.575 7.414z" fill="url(#mpaint10_linear)"/></mask><g mask="url(#mf)"><path d="M6.575 52.896c3.63 0 6.574-3.32 6.574-7.414 0-4.095-2.943-7.414-6.574-7.414S0 41.388 0 45.482c0 4.095 2.944 7.414 6.575 7.414z" fill="url(#mpaint11_linear)"/></g><mask id="mg" maskUnits="userSpaceOnUse" x="38" y="38" width="14" height="15"><path d="M44.652 52.896c3.631 0 6.575-3.32 6.575-7.414 0-4.095-2.944-7.414-6.575-7.414-3.63 0-6.574 3.32-6.574 7.414 0 4.095 2.943 7.414 6.574 7.414z" fill="url(#mpaint12_linear)"/></mask><g mask="url(#mg)"><path d="M44.652 52.896c3.631 0 6.575-3.32 6.575-7.414 0-4.095-2.944-7.414-6.575-7.414-3.63 0-6.574 3.32-6.574 7.414 0 4.095 2.943 7.414 6.574 7.414z" fill="url(#mpaint13_linear)"/></g><mask id="mh" maskUnits="userSpaceOnUse" x="76" y="38" width="14" height="15"><path d="M82.73 52.896c3.63 0 6.574-3.32 6.574-7.414 0-4.095-2.943-7.414-6.574-7.414s-6.575 3.32-6.575 7.414c0 4.095 2.944 7.414 6.575 7.414z" fill="url(#mpaint14_linear)"/></mask><g mask="url(#mh)"><path d="M82.73 52.896c3.63 0 6.574-3.32 6.574-7.414 0-4.095-2.943-7.414-6.574-7.414s-6.575 3.32-6.575 7.414c0 4.095 2.944 7.414 6.575 7.414z" fill="url(#mpaint15_linear)"/></g><mask id="mi" maskUnits="userSpaceOnUse" x="114" y="38" width="14" height="15"><path d="M120.808 52.896c3.631 0 6.575-3.32 6.575-7.414 0-4.095-2.944-7.414-6.575-7.414-3.631 0-6.575 3.32-6.575 7.414 0 4.095 2.944 7.414 6.575 7.414z" fill="url(#mpaint16_linear)"/></mask><g mask="url(#mi)"><path d="M120.808 52.896c3.631 0 6.575-3.32 6.575-7.414 0-4.095-2.944-7.414-6.575-7.414-3.631 0-6.575 3.32-6.575 7.414 0 4.095 2.944 7.414 6.575 7.414z" fill="url(#mpaint17_linear)"/></g><mask id="mj" maskUnits="userSpaceOnUse" x="152" y="38" width="14" height="15"><path d="M158.885 52.896c3.631 0 6.575-3.32 6.575-7.414 0-4.095-2.944-7.414-6.575-7.414-3.631 0-6.574 3.32-6.574 7.414 0 4.095 2.943 7.414 6.574 7.414z" fill="url(#mpaint18_linear)"/></mask><g mask="url(#mj)"><path d="M158.885 52.896c3.631 0 6.575-3.32 6.575-7.414 0-4.095-2.944-7.414-6.575-7.414-3.631 0-6.574 3.32-6.574 7.414 0 4.095 2.943 7.414 6.574 7.414z" fill="url(#mpaint19_linear)"/></g><mask id="mk" maskUnits="userSpaceOnUse" x="0" y="75" width="14" height="16"><path d="M6.575 90.045c3.63 0 6.574-3.32 6.574-7.415 0-4.094-2.943-7.414-6.574-7.414S0 78.536 0 82.631c0 4.094 2.944 7.414 6.575 7.414z" fill="url(#mpaint20_linear)"/></mask><g mask="url(#mk)"><path d="M6.575 90.045c3.63 0 6.574-3.32 6.574-7.415 0-4.094-2.943-7.414-6.574-7.414S0 78.536 0 82.631c0 4.094 2.944 7.414 6.575 7.414z" fill="url(#mpaint21_linear)"/></g><mask id="ml" maskUnits="userSpaceOnUse" x="38" y="75" width="14" height="16"><path d="M44.652 90.045c3.631 0 6.575-3.32 6.575-7.415 0-4.094-2.944-7.414-6.575-7.414-3.63 0-6.574 3.32-6.574 7.415 0 4.094 2.943 7.414 6.574 7.414z" fill="url(#mpaint22_linear)"/></mask><g mask="url(#ml)"><path d="M44.652 90.045c3.631 0 6.575-3.32 6.575-7.415 0-4.094-2.944-7.414-6.575-7.414-3.63 0-6.574 3.32-6.574 7.415 0 4.094 2.943 7.414 6.574 7.414z" fill="url(#mpaint23_linear)"/></g><mask id="mm" maskUnits="userSpaceOnUse" x="76" y="75" width="14" height="16"><path d="M82.73 90.045c3.63 0 6.574-3.32 6.574-7.415 0-4.094-2.943-7.414-6.574-7.414s-6.575 3.32-6.575 7.415c0 4.094 2.944 7.414 6.575 7.414z" fill="url(#mpaint24_linear)"/></mask><g mask="url(#mm)"><path d="M82.73 90.045c3.63 0 6.574-3.32 6.574-7.415 0-4.094-2.943-7.414-6.574-7.414s-6.575 3.32-6.575 7.415c0 4.094 2.944 7.414 6.575 7.414z" fill="url(#mpaint25_linear)"/></g><mask id="mn" maskUnits="userSpaceOnUse" x="114" y="75" width="14" height="16"><path d="M120.808 90.045c3.631 0 6.575-3.32 6.575-7.415 0-4.094-2.944-7.414-6.575-7.414-3.631 0-6.575 3.32-6.575 7.415 0 4.094 2.944 7.414 6.575 7.414z" fill="url(#mpaint26_linear)"/></mask><g mask="url(#mn)"><path d="M120.808 90.045c3.631 0 6.575-3.32 6.575-7.415 0-4.094-2.944-7.414-6.575-7.414-3.631 0-6.575 3.32-6.575 7.415 0 4.094 2.944 7.414 6.575 7.414z" fill="url(#mpaint27_linear)"/></g><mask id="mo" maskUnits="userSpaceOnUse" x="152" y="75" width="14" height="16"><path d="M158.885 90.045c3.631 0 6.575-3.32 6.575-7.415 0-4.094-2.944-7.414-6.575-7.414-3.631 0-6.574 3.32-6.574 7.415 0 4.094 2.943 7.414 6.574 7.414z" fill="url(#mpaint28_linear)"/></mask><g mask="url(#mo)"><path d="M158.885 90.045c3.631 0 6.575-3.32 6.575-7.415 0-4.094-2.944-7.414-6.575-7.414-3.631 0-6.574 3.32-6.574 7.415 0 4.094 2.943 7.414 6.574 7.414z" fill="url(#mpaint29_linear)"/></g><mask id="mp" maskUnits="userSpaceOnUse" x="0" y="112" width="14" height="16"><path d="M6.575 127.27c3.63 0 6.574-3.32 6.574-7.415 0-4.095-2.943-7.414-6.574-7.414S0 115.76 0 119.855s2.944 7.415 6.575 7.415z" fill="url(#mpaint30_linear)"/></mask><g mask="url(#mp)"><path d="M6.575 127.27c3.63 0 6.574-3.32 6.574-7.415 0-4.095-2.943-7.414-6.574-7.414S0 115.76 0 119.855s2.944 7.415 6.575 7.415z" fill="url(#mpaint31_linear)"/></g><mask id="mq" maskUnits="userSpaceOnUse" x="38" y="112" width="14" height="16"><path d="M44.652 127.27c3.631 0 6.575-3.32 6.575-7.415 0-4.095-2.944-7.414-6.575-7.414-3.63 0-6.574 3.319-6.574 7.414s2.943 7.415 6.574 7.415z" fill="url(#mpaint32_linear)"/></mask><g mask="url(#mq)"><path d="M44.652 127.27c3.631 0 6.575-3.32 6.575-7.415 0-4.095-2.944-7.414-6.575-7.414-3.63 0-6.574 3.319-6.574 7.414s2.943 7.415 6.574 7.415z" fill="url(#mpaint33_linear)"/></g><mask id="mr" maskUnits="userSpaceOnUse" x="76" y="112" width="14" height="16"><path d="M82.73 127.27c3.63 0 6.574-3.32 6.574-7.415 0-4.095-2.943-7.414-6.574-7.414s-6.575 3.319-6.575 7.414 2.944 7.415 6.575 7.415z" fill="url(#mpaint34_linear)"/></mask><g mask="url(#mr)"><path d="M82.73 127.27c3.63 0 6.574-3.32 6.574-7.415 0-4.095-2.943-7.414-6.574-7.414s-6.575 3.319-6.575 7.414 2.944 7.415 6.575 7.415z" fill="url(#mpaint35_linear)"/></g><mask id="ms" maskUnits="userSpaceOnUse" x="114" y="112" width="14" height="16"><path d="M120.808 127.27c3.631 0 6.575-3.32 6.575-7.415 0-4.095-2.944-7.414-6.575-7.414-3.631 0-6.575 3.319-6.575 7.414s2.944 7.415 6.575 7.415z" fill="url(#mpaint36_linear)"/></mask><g mask="url(#ms)"><path d="M120.808 127.27c3.631 0 6.575-3.32 6.575-7.415 0-4.095-2.944-7.414-6.575-7.414-3.631 0-6.575 3.319-6.575 7.414s2.944 7.415 6.575 7.415z" fill="url(#mpaint37_linear)"/></g><mask id="mt" maskUnits="userSpaceOnUse" x="152" y="112" width="14" height="16"><path d="M158.885 127.27c3.631 0 6.575-3.32 6.575-7.415 0-4.095-2.944-7.414-6.575-7.414-3.631 0-6.574 3.319-6.574 7.414s2.943 7.415 6.574 7.415z" fill="url(#mpaint38_linear)"/></mask><g mask="url(#mt)"><path d="M158.885 127.27c3.631 0 6.575-3.32 6.575-7.415 0-4.095-2.944-7.414-6.575-7.414-3.631 0-6.574 3.319-6.574 7.414s2.943 7.415 6.574 7.415z" fill="url(#mpaint39_linear)"/></g><mask id="mu" maskUnits="userSpaceOnUse" x="0" y="149" width="14" height="16"><path d="M6.575 164.418c3.63 0 6.574-3.319 6.574-7.414s-2.943-7.414-6.574-7.414S0 152.909 0 157.004s2.944 7.414 6.575 7.414z" fill="url(#mpaint40_linear)"/></mask><g mask="url(#mu)"><path d="M6.575 164.418c3.63 0 6.574-3.319 6.574-7.414s-2.943-7.414-6.574-7.414S0 152.909 0 157.004s2.944 7.414 6.575 7.414z" fill="url(#mpaint41_linear)"/></g><mask id="mv" maskUnits="userSpaceOnUse" x="38" y="149" width="14" height="16"><path d="M44.652 164.418c3.631 0 6.575-3.319 6.575-7.414s-2.944-7.414-6.575-7.414c-3.63 0-6.574 3.319-6.574 7.414s2.943 7.414 6.574 7.414z" fill="url(#mpaint42_linear)"/></mask><g mask="url(#mv)"><path d="M44.652 164.418c3.631 0 6.575-3.319 6.575-7.414s-2.944-7.414-6.575-7.414c-3.63 0-6.574 3.319-6.574 7.414s2.943 7.414 6.574 7.414z" fill="url(#mpaint43_linear)"/></g><mask id="mw" maskUnits="userSpaceOnUse" x="76" y="149" width="14" height="16"><path d="M82.73 164.418c3.63 0 6.574-3.319 6.574-7.414s-2.943-7.414-6.574-7.414-6.575 3.319-6.575 7.414 2.944 7.414 6.575 7.414z" fill="url(#mpaint44_linear)"/></mask><g mask="url(#mw)"><path d="M82.73 164.418c3.63 0 6.574-3.319 6.574-7.414s-2.943-7.414-6.574-7.414-6.575 3.319-6.575 7.414 2.944 7.414 6.575 7.414z" fill="url(#mpaint45_linear)"/></g><mask id="mx" maskUnits="userSpaceOnUse" x="114" y="149" width="14" height="16"><path d="M120.808 164.418c3.631 0 6.575-3.319 6.575-7.414s-2.944-7.414-6.575-7.414c-3.631 0-6.575 3.319-6.575 7.414s2.944 7.414 6.575 7.414z" fill="url(#mpaint46_linear)"/></mask><g mask="url(#mx)"><path d="M120.808 164.418c3.631 0 6.575-3.319 6.575-7.414s-2.944-7.414-6.575-7.414c-3.631 0-6.575 3.319-6.575 7.414s2.944 7.414 6.575 7.414z" fill="url(#mpaint47_linear)"/></g><mask id="my" maskUnits="userSpaceOnUse" x="152" y="149" width="14" height="16"><path d="M158.885 164.418c3.631 0 6.575-3.319 6.575-7.414s-2.944-7.414-6.575-7.414c-3.631 0-6.574 3.319-6.574 7.414s2.943 7.414 6.574 7.414z" fill="url(#mpaint48_linear)"/></mask><g mask="url(#my)"><path d="M158.885 164.418c3.631 0 6.575-3.319 6.575-7.414s-2.944-7.414-6.575-7.414c-3.631 0-6.574 3.319-6.574 7.414s2.943 7.414 6.574 7.414z" fill="url(#mpaint49_linear)"/></g></g><defs><linearGradient id="mpaint0_linear" x1="69.156" y1="187.366" x2="-41.588" y2="-61.92" gradientUnits="userSpaceOnUse"><stop/><stop offset="1" stop-color="#fff"/></linearGradient><linearGradient id="mpaint1_linear" x1="69.156" y1="187.366" x2="-41.588" y2="-61.92" gradientUnits="userSpaceOnUse"><stop stop-color="#97C3F9"/><stop offset="1" stop-color="#93C1F9"/></linearGradient><linearGradient id="mpaint2_linear" x1="102.108" y1="172.728" x2="-8.636" y2="-76.558" gradientUnits="userSpaceOnUse"><stop/><stop offset="1" stop-color="#fff"/></linearGradient><linearGradient id="mpaint3_linear" x1="102.108" y1="172.728" x2="-8.636" y2="-76.558" gradientUnits="userSpaceOnUse"><stop stop-color="#97C3F9"/><stop offset="1" stop-color="#93C1F9"/></linearGradient><linearGradient id="mpaint4_linear" x1="135.059" y1="158.089" x2="24.315" y2="-91.196" gradientUnits="userSpaceOnUse"><stop/><stop offset="1" stop-color="#fff"/></linearGradient><linearGradient id="mpaint5_linear" x1="135.059" y1="158.089" x2="24.315" y2="-91.196" gradientUnits="userSpaceOnUse"><stop stop-color="#97C3F9"/><stop offset="1" stop-color="#93C1F9"/></linearGradient><linearGradient id="mpaint6_linear" x1="168.011" y1="143.45" x2="57.267" y2="-105.835" gradientUnits="userSpaceOnUse"><stop/><stop offset="1" stop-color="#fff"/></linearGradient><linearGradient id="mpaint7_linear" x1="168.011" y1="143.45" x2="57.267" y2="-105.835" gradientUnits="userSpaceOnUse"><stop stop-color="#97C3F9"/><stop offset="1" stop-color="#93C1F9"/></linearGradient><linearGradient id="mpaint8_linear" x1="200.961" y1="128.812" x2="90.217" y2="-120.473" gradientUnits="userSpaceOnUse"><stop/><stop offset="1" stop-color="#fff"/></linearGradient><linearGradient id="mpaint9_linear" x1="200.961" y1="128.812" x2="90.217" y2="-120.473" gradientUnits="userSpaceOnUse"><stop stop-color="#97C3F9"/><stop offset="1" stop-color="#93C1F9"/></linearGradient><linearGradient id="mpaint10_linear" x1="57.912" y1="192.36" x2="-52.83" y2="-56.923" gradientUnits="userSpaceOnUse"><stop/><stop offset="1" stop-color="#fff"/></linearGradient><linearGradient id="mpaint11_linear" x1="57.912" y1="192.36" x2="-52.83" y2="-56.923" gradientUnits="userSpaceOnUse"><stop stop-color="#97C3F9"/><stop offset="1" stop-color="#93C1F9"/></linearGradient><linearGradient id="mpaint12_linear" x1="90.863" y1="177.721" x2="-19.878" y2="-71.562" gradientUnits="userSpaceOnUse"><stop/><stop offset="1" stop-color="#fff"/></linearGradient><linearGradient id="mpaint13_linear" x1="90.863" y1="177.721" x2="-19.878" y2="-71.562" gradientUnits="userSpaceOnUse"><stop stop-color="#97C3F9"/><stop offset="1" stop-color="#93C1F9"/></linearGradient><linearGradient id="mpaint14_linear" x1="123.814" y1="163.083" x2="13.073" y2="-86.2" gradientUnits="userSpaceOnUse"><stop/><stop offset="1" stop-color="#fff"/></linearGradient><linearGradient id="mpaint15_linear" x1="123.814" y1="163.083" x2="13.073" y2="-86.2" gradientUnits="userSpaceOnUse"><stop stop-color="#97C3F9"/><stop offset="1" stop-color="#93C1F9"/></linearGradient><linearGradient id="mpaint16_linear" x1="156.766" y1="148.444" x2="46.025" y2="-100.838" gradientUnits="userSpaceOnUse"><stop/><stop offset="1" stop-color="#fff"/></linearGradient><linearGradient id="mpaint17_linear" x1="156.766" y1="148.444" x2="46.025" y2="-100.838" gradientUnits="userSpaceOnUse"><stop stop-color="#97C3F9"/><stop offset="1" stop-color="#93C1F9"/></linearGradient><linearGradient id="mpaint18_linear" x1="189.717" y1="133.806" x2="78.975" y2="-115.476" gradientUnits="userSpaceOnUse"><stop/><stop offset="1" stop-color="#fff"/></linearGradient><linearGradient id="mpaint19_linear" x1="189.717" y1="133.806" x2="78.975" y2="-115.476" gradientUnits="userSpaceOnUse"><stop stop-color="#97C3F9"/><stop offset="1" stop-color="#93C1F9"/></linearGradient><linearGradient id="mpaint20_linear" x1="46.667" y1="197.362" x2="-64.084" y2="-51.929" gradientUnits="userSpaceOnUse"><stop/><stop offset="1" stop-color="#fff"/></linearGradient><linearGradient id="mpaint21_linear" x1="46.667" y1="197.362" x2="-64.084" y2="-51.929" gradientUnits="userSpaceOnUse"><stop stop-color="#97C3F9"/><stop offset="1" stop-color="#93C1F9"/></linearGradient><linearGradient id="mpaint22_linear" x1="79.618" y1="182.722" x2="-31.132" y2="-66.569" gradientUnits="userSpaceOnUse"><stop/><stop offset="1" stop-color="#fff"/></linearGradient><linearGradient id="mpaint23_linear" x1="79.618" y1="182.722" x2="-31.132" y2="-66.569" gradientUnits="userSpaceOnUse"><stop stop-color="#97C3F9"/><stop offset="1" stop-color="#93C1F9"/></linearGradient><linearGradient id="mpaint24_linear" x1="112.569" y1="168.083" x2="1.819" y2="-81.207" gradientUnits="userSpaceOnUse"><stop/><stop offset="1" stop-color="#fff"/></linearGradient><linearGradient id="mpaint25_linear" x1="112.569" y1="168.083" x2="1.819" y2="-81.207" gradientUnits="userSpaceOnUse"><stop stop-color="#97C3F9"/><stop offset="1" stop-color="#93C1F9"/></linearGradient><linearGradient id="mpaint26_linear" x1="145.521" y1="153.444" x2="34.771" y2="-95.847" gradientUnits="userSpaceOnUse"><stop/><stop offset="1" stop-color="#fff"/></linearGradient><linearGradient id="mpaint27_linear" x1="145.521" y1="153.444" x2="34.771" y2="-95.847" gradientUnits="userSpaceOnUse"><stop stop-color="#97C3F9"/><stop offset="1" stop-color="#93C1F9"/></linearGradient><linearGradient id="mpaint28_linear" x1="178.472" y1="138.805" x2="67.721" y2="-110.486" gradientUnits="userSpaceOnUse"><stop/><stop offset="1" stop-color="#fff"/></linearGradient><linearGradient id="mpaint29_linear" x1="178.472" y1="138.805" x2="67.721" y2="-110.486" gradientUnits="userSpaceOnUse"><stop stop-color="#97C3F9"/><stop offset="1" stop-color="#93C1F9"/></linearGradient><linearGradient id="mpaint30_linear" x1="35.422" y1="202.355" x2="-75.329" y2="-46.935" gradientUnits="userSpaceOnUse"><stop/><stop offset="1" stop-color="#fff"/></linearGradient><linearGradient id="mpaint31_linear" x1="35.422" y1="202.355" x2="-75.329" y2="-46.935" gradientUnits="userSpaceOnUse"><stop stop-color="#97C3F9"/><stop offset="1" stop-color="#93C1F9"/></linearGradient><linearGradient id="mpaint32_linear" x1="68.373" y1="187.716" x2="-42.377" y2="-61.575" gradientUnits="userSpaceOnUse"><stop/><stop offset="1" stop-color="#fff"/></linearGradient><linearGradient id="mpaint33_linear" x1="68.373" y1="187.716" x2="-42.377" y2="-61.575" gradientUnits="userSpaceOnUse"><stop stop-color="#97C3F9"/><stop offset="1" stop-color="#93C1F9"/></linearGradient><linearGradient id="mpaint34_linear" x1="101.324" y1="173.077" x2="-9.426" y2="-76.213" gradientUnits="userSpaceOnUse"><stop/><stop offset="1" stop-color="#fff"/></linearGradient><linearGradient id="mpaint35_linear" x1="101.324" y1="173.077" x2="-9.426" y2="-76.213" gradientUnits="userSpaceOnUse"><stop stop-color="#97C3F9"/><stop offset="1" stop-color="#93C1F9"/></linearGradient><linearGradient id="mpaint36_linear" x1="134.276" y1="158.438" x2="23.526" y2="-90.853" gradientUnits="userSpaceOnUse"><stop/><stop offset="1" stop-color="#fff"/></linearGradient><linearGradient id="mpaint37_linear" x1="134.276" y1="158.438" x2="23.526" y2="-90.853" gradientUnits="userSpaceOnUse"><stop stop-color="#97C3F9"/><stop offset="1" stop-color="#93C1F9"/></linearGradient><linearGradient id="mpaint38_linear" x1="167.227" y1="143.799" x2="56.477" y2="-105.492" gradientUnits="userSpaceOnUse"><stop/><stop offset="1" stop-color="#fff"/></linearGradient><linearGradient id="mpaint39_linear" x1="167.227" y1="143.799" x2="56.477" y2="-105.492" gradientUnits="userSpaceOnUse"><stop stop-color="#97C3F9"/><stop offset="1" stop-color="#93C1F9"/></linearGradient><linearGradient id="mpaint40_linear" x1="24.177" y1="207.348" x2="-86.567" y2="-41.937" gradientUnits="userSpaceOnUse"><stop/><stop offset="1" stop-color="#fff"/></linearGradient><linearGradient id="mpaint41_linear" x1="24.177" y1="207.348" x2="-86.567" y2="-41.937" gradientUnits="userSpaceOnUse"><stop stop-color="#97C3F9"/><stop offset="1" stop-color="#93C1F9"/></linearGradient><linearGradient id="mpaint42_linear" x1="57.128" y1="192.71" x2="-53.616" y2="-56.576" gradientUnits="userSpaceOnUse"><stop/><stop offset="1" stop-color="#fff"/></linearGradient><linearGradient id="mpaint43_linear" x1="57.128" y1="192.71" x2="-53.616" y2="-56.576" gradientUnits="userSpaceOnUse"><stop stop-color="#97C3F9"/><stop offset="1" stop-color="#93C1F9"/></linearGradient><linearGradient id="mpaint44_linear" x1="90.079" y1="178.071" x2="-20.665" y2="-71.214" gradientUnits="userSpaceOnUse"><stop/><stop offset="1" stop-color="#fff"/></linearGradient><linearGradient id="mpaint45_linear" x1="90.079" y1="178.071" x2="-20.665" y2="-71.214" gradientUnits="userSpaceOnUse"><stop stop-color="#97C3F9"/><stop offset="1" stop-color="#93C1F9"/></linearGradient><linearGradient id="mpaint46_linear" x1="123.031" y1="163.433" x2="12.287" y2="-85.853" gradientUnits="userSpaceOnUse"><stop/><stop offset="1" stop-color="#fff"/></linearGradient><linearGradient id="mpaint47_linear" x1="123.031" y1="163.433" x2="12.287" y2="-85.853" gradientUnits="userSpaceOnUse"><stop stop-color="#97C3F9"/><stop offset="1" stop-color="#93C1F9"/></linearGradient><linearGradient id="mpaint48_linear" x1="155.982" y1="148.794" x2="45.238" y2="-100.491" gradientUnits="userSpaceOnUse"><stop/><stop offset="1" stop-color="#fff"/></linearGradient><linearGradient id="mpaint49_linear" x1="155.982" y1="148.794" x2="45.238" y2="-100.491" gradientUnits="userSpaceOnUse"><stop stop-color="#97C3F9"/><stop offset="1" stop-color="#93C1F9"/></linearGradient></defs></svg><svg fill="none" viewBox="0 0 64 64" id="utp_ic-1" xmlns="http://www.w3.org/2000/svg"><path d="M45.333 24.747a5.333 5.333 0 100-10.667 5.333 5.333 0 000 10.667zM7.227 37.12a8 8 0 011.52.667 10.826 10.826 0 0010.933 0 6.987 6.987 0 016.827 0l.56.266a11.041 11.041 0 0010.32-.346 6.987 6.987 0 016.826 0c1.69.965 3.6 1.48 5.547 1.493a10.666 10.666 0 005.333-1.493 8.001 8.001 0 011.52-.667A2.666 2.666 0 1055.227 32c-.93.289-1.825.682-2.667 1.173a5.6 5.6 0 01-5.6 0 12.32 12.32 0 00-12.107 0c-.25.123-.509.23-.773.32l4.16-4.16c.095-.123.176-.257.24-.4.12-.13.228-.274.32-.426a3.456 3.456 0 000-.507 2.838 2.838 0 000-.507c.013-.16.013-.32 0-.48a2.84 2.84 0 000-.506 4.028 4.028 0 00-.267-.454 1.861 1.861 0 00-.266-.426l-8.187-8.88a2.934 2.934 0 00-.747-.587 2.134 2.134 0 00-.56 0 1.413 1.413 0 00-.453 0A2.374 2.374 0 0027.2 16l-9.44 3.52a2.667 2.667 0 00-.225 4.92c.64.3 1.373.333 2.038.093l7.814-2.853 5.333 5.653-5.067 5.067a12.32 12.32 0 00-10.506.747 5.6 5.6 0 01-5.6 0 12.848 12.848 0 00-2.667-1.174 2.665 2.665 0 00-2.526 4.636c.291.218.625.374.98.458l-.107.053zm48 8.24c-.93.289-1.825.682-2.667 1.173a5.6 5.6 0 01-5.6 0 12.32 12.32 0 00-12.107 0 5.627 5.627 0 01-5.653 0 12.32 12.32 0 00-12.107 0 5.6 5.6 0 01-5.6 0 12.851 12.851 0 00-2.666-1.173 2.665 2.665 0 00-3.244 3.828 2.667 2.667 0 001.697 1.265 8 8 0 011.52.667 10.826 10.826 0 0010.933 0 6.987 6.987 0 016.827 0 11.067 11.067 0 0010.987 0 6.987 6.987 0 016.826 0c1.69.966 3.6 1.48 5.547 1.493a10.666 10.666 0 005.333-1.493 8 8 0 011.52-.667 2.674 2.674 0 00-1.546-5.12v.027z" fill="#2D9CDB"/></svg><svg fill="none" viewBox="0 0 56 56" id="utp_ic-2" xmlns="http://www.w3.org/2000/svg"><path fill-rule="evenodd" clip-rule="evenodd" d="M18 13.126h-7.215c4.827-5.522 10.113-7.5 17.215-7.5 12.426 0 22.5 10.073 22.5 22.5 0 12.426-10.074 22.5-22.5 22.5S5.5 40.552 5.5 28.126h-5c0 15.187 12.312 27.5 27.5 27.5s27.5-12.313 27.5-27.5c0-15.188-12.312-27.5-27.5-27.5-8.033 0-14.407 2.276-20 8.14V3.105H3v15.021h15v-5zM38.533 29.56h-10v-12.5h-5v17.5h15v-5z" fill="#2D9CDB"/></svg><svg fill="none" viewBox="0 0 55 55" id="utp_ic-3" xmlns="http://www.w3.org/2000/svg"><path d="M52.688 22.3a8.126 8.126 0 00-6.23-2.925h-12.35l1.517-3.873A11.186 11.186 0 0025.09.417a2.709 2.709 0 00-2.465 1.598l-7.719 17.36H8.542A8.125 8.125 0 00.417 27.5v18.958a8.125 8.125 0 008.125 8.125h34.477a8.125 8.125 0 007.99-6.662l3.439-18.959a8.126 8.126 0 00-1.76-6.662zm-38.73 26.867H8.542a2.708 2.708 0 01-2.709-2.709V27.5a2.708 2.708 0 012.709-2.708h5.416v24.375zm35.209-21.18l-3.44 18.959a2.708 2.708 0 01-2.708 2.22H19.375V22.653l7.367-16.575a5.716 5.716 0 013.737 7.53l-1.435 3.872a5.418 5.418 0 005.064 7.313h12.35a2.708 2.708 0 012.086.975 2.709 2.709 0 01.623 2.22z" fill="#2D9CDB"/></svg><svg fill="none" viewBox="0 0 67 63" id="utp_ic-4" xmlns="http://www.w3.org/2000/svg"><path fill-rule="evenodd" clip-rule="evenodd" d="M17.225 39.927l-3.842 22.4L33.5 51.753l20.117 10.576-3.842-22.4L66.05 24.062l-22.491-3.268L33.5.415l-10.058 20.38L.95 24.063l16.274 15.864zm26.55-1.949l2.426 14.143-12.7-6.677-12.702 6.677 2.425-14.143L12.95 27.962l14.2-2.064L33.5 13.031l6.35 12.867 14.201 2.064-10.275 10.016z" fill="#2D9CDB"/></svg><svg fill="none" viewBox="0 0 72 58" id="utp_ic-5" xmlns="http://www.w3.org/2000/svg"><path d="M36 2L37.25.438a2 2 0 00-2.5 0L36 2zm20 16h2a2 2 0 00-.75-1.562L56 18zm-40 0l-1.25-1.562A2 2 0 0014 18h2zm0 18.359h-2a2 2 0 001.333 1.886L16 36.358zm3.11 1.632l1.109-1.664-1.11 1.664zm.453.302l-1.11 1.664 1.11-1.664zm8.875 0l1.11 1.664-1.11-1.664zm.906-.604l-1.11-1.664 1.11 1.664zm13.313 0l1.109-1.664-1.11 1.664zm.453.302L42 39.655l1.11-1.664zm.453.302l1.109-1.664-1.11 1.664zm8.875 0l1.11 1.664-1.11-1.664zm.906-.604l-1.11-1.664 1.11 1.664zM56 36.359l.667 1.886A2 2 0 0058 36.359h-2zM42 18h2a2 2 0 00-2-2v2zm0 12v2a2 2 0 002-2h-2zM30 18v-2a2 2 0 00-2 2h2zm0 12h-2a2 2 0 002 2v-2zm4.75-26.438l20 16 2.5-3.124-20-16-2.5 3.124zm-17.5 16l20-16-2.5-3.124-20 16 2.5 3.124zM18 36.359V18h-4v18.359h4zm1.766-.334a13.996 13.996 0 00-3.1-1.552l-1.333 3.772c.77.271 1.513.64 2.214 1.108l2.219-3.328zm.453.302l-.453-.302-2.219 3.328.453.302 2.219-3.328zm.453.302l-.453-.302L18 39.655l.453.302 2.219-3.328zm6.656 0a6 6 0 01-6.656 0l-2.219 3.328a10 10 0 0011.094 0l-2.219-3.328zm.906-.604l-.906.604 2.22 3.328.905-.604-2.219-3.328zm15.532 0a14 14 0 00-15.532 0l2.22 3.328a10 10 0 0111.093 0l2.219-3.328zm.453.302l-.453-.302-2.219 3.328.453.302 2.219-3.328zm.453.302l-.453-.302L42 39.655l.453.302 2.219-3.328zm6.656 0a6 6 0 01-6.656 0l-2.219 3.328a10 10 0 0011.094 0l-2.219-3.328zm.906-.604l-.906.604 2.22 3.328.905-.604-2.219-3.328zm3.1-1.552c-1.079.382-2.12.899-3.1 1.552l2.22 3.328a9.99 9.99 0 012.213-1.108l-1.334-3.772zM54 18v18.359h4V18h-4zm-14 0v12h4V18h-4zm-10 2h12v-4H30v4zm2 10V18h-4v12h4zm10-2H30v4h12v-4z" fill="#2D9CDB"/><path d="M63.5 24l-3-2.4L36 2 11.5 21.6l-3 2.4" stroke="#2D9CDB" stroke-width="4" stroke-linecap="round" stroke-linejoin="round"/><path d="M51 14l-1.25 1.562A2 2 0 0053 14h-2zm-6-4.8h-2a2 2 0 00.75 1.562L45 9.2zM49 4v10h4V4h-4zm1 1a1 1 0 01-1-1h4a3 3 0 00-3-3v4zm-4 0h4V1h-4v4zm1-1a1 1 0 01-1 1V1a3 3 0 00-3 3h4zm0 5.2V4h-4v5.2h4zm-3.25 1.562l6 4.8 2.5-3.124-6-4.8-2.5 3.124zM6.453 45.698l1.11 1.664-1.11-1.664zm-.906.604l-1.11-1.664 1.11 1.664zM18 46l1.11-1.664L18 46zm-.453-.302l-1.11 1.664 1.11-1.664zM2.8 45.477a2 2 0 101.4 3.747l-1.4-3.747zm27.653.221l-1.11-1.664 1.11 1.664zm-.906.604l-1.11-1.664 1.11 1.664zm-11.094 0l-1.11 1.665 1.11-1.665zM42 46l1.11-1.664L42 46zm-.453-.302l-1.11 1.664 1.11-1.664zm12.906 0l-1.11-1.664 1.11 1.664zm-.906.604l1.11 1.665-1.11-1.665zm-11.094 0l1.11-1.664-1.11 1.664zM66 46l1.11-1.664L66 46zm-.453-.302l-1.11 1.664 1.11-1.664zm.906.604l1.11-1.664-1.11 1.664zm1.347 2.921a2 2 0 001.4-3.747l-1.4 3.747zM5.344 44.034l-.906.604 2.219 3.329.906-.605-2.22-3.328zm13.766.302l-.453-.302-2.22 3.328.454.302 2.219-3.328zM7.563 47.362a8 8 0 018.875 0l2.219-3.328a12 12 0 00-13.313 0l2.219 3.328zm-3.125-2.724c-.52.347-1.07.626-1.638.839l1.4 3.747a12 12 0 002.457-1.257l-2.22-3.329zm24.906-.604l-.906.604 2.219 3.329.906-.605-2.22-3.328zm-9.781.604l-.453-.302-2.22 3.328.454.303 2.219-3.329zm23.547-.302l-.453-.302-2.22 3.328.454.302 2.219-3.328zm-11.547 3.026a8 8 0 018.875 0l2.219-3.328a12 12 0 00-13.313 0l2.219 3.328zm-3.125-2.724a8 8 0 01-8.875 0l-2.22 3.329a12 12 0 0013.314 0l-2.22-3.329zm24.906-.604l-.906.604 2.219 3.329.906-.605-2.22-3.328zm-9.781.604l-.453-.302-2.22 3.328.454.303 2.219-3.329zm23.547-.302l-.453-.302-2.22 3.328.454.302 2.219-3.328zm-11.547 3.026a8 8 0 018.875 0l2.219-3.328a12 12 0 00-13.313 0l2.219 3.328zm-3.125-2.724a8 8 0 01-8.875 0l-2.22 3.329a12 12 0 0013.314 0l-2.22-3.329zm15.125 0l-.453-.302-2.22 3.328.454.303 2.219-3.329zm1.637.838a7.997 7.997 0 01-1.637-.838l-2.22 3.329c.78.518 1.604.938 2.457 1.256l1.4-3.747zM18 53.77l1.11-1.664L18 53.77zm-.453-.302l-1.11 1.664 1.11-1.664zM16.2 50.547a2 2 0 00-1.4 3.747l1.4-3.747zm14.253 2.92l1.11 1.665-1.11-1.664zm-.906.605l-1.11-1.664 1.11 1.664zm-11.094 0l-1.11 1.664 1.11-1.664zM42 53.77l1.11-1.664L42 53.77zm-.453-.302l-1.11 1.664 1.11-1.664zm12.906 0l1.11 1.664-1.11-1.664zm-.906.604l-1.11-1.664 1.11 1.664zm-11.094 0l1.11-1.664-1.11 1.664zm14.747.222a2 2 0 00-1.4-3.747l1.4 3.747zm-38.09-2.188l-.453-.302-2.22 3.328.454.302 2.219-3.328zm-4.31 2.188a8 8 0 011.638.838l2.219-3.328a12 12 0 00-2.457-1.257l-1.4 3.747zm14.544-2.49l-.906.604 2.219 3.328.906-.604-2.22-3.328zm-9.781.604l-.453-.302-2.22 3.328.454.302 2.219-3.328zm23.547-.302l-.453-.302-2.22 3.328.454.302 2.219-3.328zm-11.547 3.026a8 8 0 018.875 0l2.219-3.328a12 12 0 00-13.313 0l2.219 3.328zm-3.125-2.724a8 8 0 01-8.875 0l-2.22 3.328a12 12 0 0013.314 0l-2.22-3.328zm24.906-.604l-.906.604 2.219 3.328.906-.604-2.22-3.328zm-9.781.604l-.453-.302-2.22 3.328.454.302 2.219-3.328zm12 2.724a8.002 8.002 0 011.637-.838l-1.4-3.747c-.853.319-1.678.738-2.456 1.257l2.219 3.328zm-3.125-2.724a8 8 0 01-8.875 0l-2.22 3.328a12 12 0 0013.314 0l-2.22-3.328z" fill="#2D9CDB"/></svg><svg fill="none" viewBox="0 0 58 53" id="utp_ic-6" xmlns="http://www.w3.org/2000/svg"><path d="M12.875 11.929a2 2 0 10-4 0h4zm32.25 29.142a2 2 0 004 0h-4zm-32.25-1.776V11.929h-4v27.366h4zm32.25-25.59v27.367h4V13.704h-4zM31 39.295v-25.59h-4v25.59h4zm7.063-36.652C31.953 2.643 27 7.596 27 13.705h4c0-3.9 3.162-7.062 7.063-7.062v-4zM19.936 50.357c6.11 0 11.063-4.953 11.063-11.062h-4c0 3.9-3.162 7.062-7.063 7.062v4zm29.188-36.652c0-6.11-4.953-11.062-11.063-11.062v4c3.901 0 7.063 3.162 7.063 7.062h4zm-40.25 25.59c0 6.11 4.953 11.062 11.063 11.062v-4a7.063 7.063 0 01-7.063-7.062h-4z" fill="#2D9CDB"/><path d="M17.896 11.929H3.854c-1.425 0-2.14-1.722-1.135-2.733l6.03-6.059a3 3 0 014.252 0l6.03 6.06c1.006 1.01.29 2.732-1.135 2.732zM40.104 41.071h14.042c1.425 0 2.14 1.722 1.135 2.733l-6.03 6.059a3 3 0 01-4.252 0l-6.03-6.06c-1.006-1.01-.29-2.732 1.135-2.732z" stroke="#2D9CDB" stroke-width="4" stroke-linecap="round" stroke-linejoin="round"/></svg><svg fill="none" viewBox="0 0 55 57" id="utp_ic-7" xmlns="http://www.w3.org/2000/svg"><path d="M1.77 19.996l24.376 14.083a2.708 2.708 0 002.708 0L53.23 19.996a2.708 2.708 0 001.354-2.33 2.708 2.708 0 00-1.354-2.356L28.854 1.254a2.708 2.708 0 00-2.708 0L1.77 15.31a2.708 2.708 0 00-1.354 2.357 2.708 2.708 0 001.354 2.329zM27.5 6.833l18.958 10.834L27.5 28.5 8.542 17.667 27.5 6.833zm23.02 19.42L27.5 39.332 4.48 26.143a2.707 2.707 0 10-2.71 4.686l24.376 14.084a2.708 2.708 0 002.708 0L53.23 30.829a2.709 2.709 0 00.306-4.484 2.708 2.708 0 00-3.014-.201v.108zm0 10.832L27.5 50.167 4.48 36.977A2.709 2.709 0 00.768 37.98a2.708 2.708 0 001.002 3.684l24.375 14.083a2.707 2.707 0 002.708 0L53.23 41.662a2.709 2.709 0 00.306-4.484 2.71 2.71 0 00-3.014-.2v.107z" fill="#2D9CDB"/></svg><svg fill="none" viewBox="0 0 92 90" id="utp_ic-8" xmlns="http://www.w3.org/2000/svg"><path fill-rule="evenodd" clip-rule="evenodd" d="M45.733 40.912l5.143 10.54 7.749 5.292v9.91h-3.268c-1.15-3.332-4.252-5.72-7.899-5.72-3.646 0-6.748 2.388-7.898 5.72H27.44c-1.15-3.332-4.252-5.72-7.898-5.72-3.647 0-6.75 2.388-7.899 5.72H8.375V40.913h37.358zm12.892 31.463h-3.268c-1.15 3.333-4.252 5.72-7.899 5.72-3.646 0-6.748-2.387-7.898-5.72H27.44c-1.15 3.333-4.252 5.72-7.898 5.72-3.647 0-6.75-2.387-7.899-5.72H8.375c-3.084 0-5.583-2.561-5.583-5.72V40.912c0-3.16 2.5-5.72 5.583-5.72h37.358c2.115 0 4.048 1.223 4.994 3.161l4.48 9.181 9.001 6.148v12.973c0 3.159-2.5 5.72-5.583 5.72zm-36.292-2.86c0 1.58-1.25 2.86-2.791 2.86-1.542 0-2.792-1.28-2.792-2.86 0-1.58 1.25-2.86 2.792-2.86 1.541 0 2.791 1.28 2.791 2.86zm27.917 0c0 1.58-1.25 2.86-2.792 2.86-1.541 0-2.791-1.28-2.791-2.86 0-1.58 1.25-2.86 2.791-2.86 1.542 0 2.792 1.28 2.792 2.86zM69.125 30.569l10.911-11.18 3.594 3.683-14.505 14.863-9.422-9.654 3.594-3.683 5.828 5.97z" fill="#2D9CDB"/></svg><svg fill="none" viewBox="0 0 42 56" id="utp_ic-9" xmlns="http://www.w3.org/2000/svg"><path fill-rule="evenodd" clip-rule="evenodd" d="M7.625 55.886H.5V50.85h2.375V.482h4.75V3h33.546L34.05 18.11l7.125 15.11H7.625v17.63H10v5.036H7.625zm0-27.702V8.037h25.862L28.739 18.11l4.75 10.073H7.625z" fill="#2D9CDB"/></svg></svg>